<?xml version="1.0" encoding="UTF-8"?><svg id="Layer_2" xmlns="http://www.w3.org/2000/svg" viewBox="0 0 462 615"><defs><style>.cls-1,.cls-2{fill:#000;stroke-width:0px;}.cls-2{fill-rule:evenodd;}</style></defs><g id="Layer_1-2"><path class="cls-1" d="M366.026,305.312h-11.891c-.35,0-.634.284-.634.633s.284.633.634.633h12.163l-24.557,33.551c-.207.283-.145.679.137.886.113.082.244.122.374.122.195,0,.388-.09.512-.26l25.158-34.372c.163-.222.163-.525,0-.747l-24.003-32.794c-.207-.282-.603-.343-.886-.137-.282.206-.344.602-.137.885l23.13,31.6Z"/><path class="cls-1" d="M94.383,306.578h12.405c.35,0,.634-.283.634-.633s-.284-.633-.634-.633h-12.132l20.804-28.423c.207-.283.146-.679-.137-.885-.283-.206-.679-.146-.886.137l-21.677,29.617c-.163.222-.163.525,0,.747l23.784,32.496c.125.169.317.259.512.259.13,0,.261-.04.374-.122.282-.206.344-.603.137-.885l-23.184-31.675Z"/><path class="cls-1" d="M299.104,402.098c.206-.282.145-.678-.137-.885-.283-.206-.679-.145-.886.137l-67.318,91.973-68.074-93.006c-.207-.282-.603-.343-.886-.137-.283.206-.344.603-.137.885l69.097,94.403,68.341-93.37Z"/><path class="cls-1" d="M168.529,202.51c.113.083.243.123.373.123.196,0,.388-.09.512-.259l60.927-83.24,60.519,82.684c.207.282.603.343.886.137.282-.207.344-.602.137-.885l-61.542-84.08-61.949,84.636c-.207.282-.145.678.137.885h0Z"/><path class="cls-1" d="M13,310.8c0,28.721,11.028,55.869,31.054,76.468-8.989,7.497-19.247,13.388-30.435,17.403-.329.118-.5.481-.382.81.093.258.337.419.596.419.071,0,.144-.012.214-.037,19.581-7.028,36.36-19.719,48.524-36.702,12.43-17.355,19-37.848,19-59.262s-6.57-41.907-19-59.262c-12.164-16.983-28.943-29.675-48.524-36.702-.33-.119-.693.053-.811.382-.118.329.053.692.382.809,11.591,4.16,22.186,10.332,31.403,18.219l-.076.069c-20.601,20.707-31.946,48.19-31.946,77.386ZM80.304,309.899c0,21.149-6.488,41.387-18.763,58.525-3.094,4.32-6.493,8.357-10.162,12.091-18.667-18.951-28.947-44.02-28.947-70.616s10.259-51.613,28.9-70.57l.046-.049c3.669,3.735,7.069,7.773,10.164,12.094,12.275,17.138,18.763,37.376,18.763,58.525ZM50.485,238.38l-.068.074c-18.863,19.183-29.252,44.556-29.252,71.445s10.413,52.324,29.322,71.516c-1.761,1.749-3.584,3.428-5.463,5.036-19.835-20.37-30.757-47.232-30.757-75.651,0-28.859,11.215-56.025,31.551-76.468l.169-.151c1.54,1.352,3.04,2.752,4.498,4.199Z"/><path class="cls-1" d="M230.528,405.859c26.712,0,51.825-10.396,70.713-29.273,18.888-18.877,29.29-43.976,29.29-70.673s-10.402-51.795-29.29-70.672c-18.888-18.878-44.001-29.274-70.713-29.274s-51.825,10.396-70.712,29.274c-18.888,18.877-29.29,43.976-29.29,70.672s10.402,51.796,29.29,70.673c18.888,18.877,44.001,29.273,70.712,29.273ZM154.798,369.232l30.92-25.545c2.372,2.809,5.002,5.392,7.855,7.712l-24.93,31.412c-2.748-2.217-5.398-4.589-7.931-7.12-2.078-2.077-4.046-4.235-5.914-6.459h0ZM209.673,251.34l-14.836-37.49c6.012-2.326,12.259-4.058,18.671-5.165l6.709,39.739c-3.641.645-7.166,1.63-10.544,2.916ZM208.494,251.804c-3.407,1.384-6.656,3.077-9.71,5.049l-22.292-33.56c5.433-3.565,11.18-6.566,17.169-8.973l14.833,37.484ZM230.453,248.794c31.572,0,57.257,25.671,57.257,57.225s-25.685,57.225-57.257,57.225-57.258-25.671-57.258-57.225,25.686-57.225,57.258-57.225ZM257.059,253.929l17.975-36.156c5.739,2.902,11.208,6.38,16.334,10.404l-25.095,31.619c-2.872-2.228-5.954-4.197-9.214-5.867ZM255.925,253.364c-3.256-1.579-6.681-2.863-10.237-3.822l10.053-39.073c6.273,1.644,12.349,3.901,18.156,6.744l-17.972,36.151ZM244.46,249.225c-3.492-.861-7.106-1.409-10.811-1.609l1.703-40.267c6.527.311,12.938,1.255,19.162,2.801l-10.054,39.075ZM279.615,337.719l33.988,21.575c-3.48,5.386-7.51,10.466-12.063,15.173l-28.723-28.132c2.524-2.648,4.801-5.533,6.798-8.616ZM280.292,336.648c1.913-3.098,3.544-6.387,4.859-9.831l37.762,14.051c-2.287,6.046-5.172,11.856-8.628,17.359l-33.993-21.579ZM285.59,325.629c1.218-3.407,2.129-6.959,2.697-10.622l39.849,5.896c-.976,6.44-2.581,12.723-4.782,18.779l-37.764-14.053ZM286.955,290.765l38.866-10.83c1.68,6.195,2.758,12.585,3.204,19.099l-40.217,2.514c-.281-3.701-.912-7.305-1.853-10.783ZM286.611,289.546c-1.04-3.534-2.401-6.931-4.057-10.154l35.789-18.682c2.971,5.749,5.36,11.775,7.137,18.005l-38.869,10.831ZM281.962,278.273c-1.743-3.221-3.782-6.259-6.077-9.081l31.12-25.71c4.136,5.042,7.73,10.434,10.754,16.104l-35.797,18.687ZM251.539,360.581l14.782,37.354c-6.019,2.337-12.276,4.079-18.697,5.193l-6.679-39.561c3.661-.665,7.203-1.673,10.594-2.986h0ZM252.715,360.11c3.415-1.409,6.669-3.132,9.725-5.134l22.24,33.482c-5.436,3.578-11.188,6.59-17.183,9.007l-14.782-37.355ZM203.85,358.111l-17.861,35.925c-5.749-2.91-11.225-6.398-16.357-10.433l24.931-31.414c2.892,2.251,5.999,4.238,9.287,5.922h0ZM204.984,358.675c3.283,1.593,6.737,2.885,10.325,3.846l-9.992,38.837c-6.285-1.647-12.373-3.911-18.191-6.762l17.858-35.921ZM216.537,362.836c3.521.861,7.164,1.408,10.9,1.598l-1.694,40.045c-6.54-.31-12.963-1.254-19.2-2.803l9.994-38.84ZM181.53,273.956l-33.981-21.57c3.487-5.375,7.523-10.445,12.08-15.141l28.751,28.16c-2.539,2.626-4.834,5.489-6.85,8.551ZM180.845,275.021c-1.936,3.085-3.594,6.361-4.936,9.794l-37.701-14.029c2.297-6.039,5.191-11.842,8.655-17.336l33.982,21.571h0ZM175.46,285.999c-1.245,3.405-2.178,6.958-2.773,10.623l-39.737-5.88c.988-6.437,2.604-12.717,4.817-18.769l37.693,14.026h0ZM173.867,320.961l-38.672,10.776c-1.672-6.203-2.739-12.599-3.174-19.12l40.053-2.503c.259,3.721.867,7.348,1.793,10.847ZM174.203,322.183c1.026,3.562,2.383,6.986,4.035,10.235l-35.587,18.577c-2.967-5.76-5.35-11.796-7.119-18.037l38.671-10.775ZM178.824,333.54c1.743,3.252,3.784,6.321,6.087,9.17l-30.926,25.55c-4.137-5.054-7.73-10.458-10.751-16.141l35.59-18.579ZM227.01,404.525l1.694-40.043c.581.018,1.164.029,1.749.029,3.144,0,6.231-.253,9.242-.732l6.678,39.551c-5.191.832-10.484,1.263-15.844,1.263-1.177,0-2.349-.028-3.519-.068h0ZM285.734,387.756l-22.241-33.485c3.03-2.078,5.856-4.433,8.44-7.03l28.722,28.132c-.104.105-.205.213-.31.317-4.528,4.526-9.422,8.554-14.61,12.065h0ZM328.314,319.65l-39.849-5.897c.336-2.531.512-5.112.512-7.734,0-1.076-.031-2.145-.089-3.207l40.214-2.514c.104,1.863.162,3.734.162,5.615,0,4.637-.325,9.223-.95,13.737ZM306.19,242.512l-31.115,25.706c-2.361-2.779-4.976-5.336-7.81-7.634l25.091-31.615c2.769,2.231,5.438,4.617,7.989,7.167,2.053,2.052,3.998,4.181,5.845,6.376ZM234.086,207.303l-1.704,40.26c-.641-.021-1.283-.035-1.929-.035-3.055,0-6.056.236-8.986.689l-6.708-39.733c5.167-.824,10.435-1.251,15.769-1.251,1.19,0,2.375.028,3.558.07ZM175.436,223.993l22.29,33.557c-3.034,2.053-5.864,4.383-8.457,6.953l-28.756-28.165c.067-.067.132-.135.198-.203,4.562-4.559,9.494-8.613,14.725-12.143h0ZM132.767,291.995l39.732,5.879c-.373,2.663-.57,5.381-.57,8.145,0,.95.024,1.893.069,2.831l-40.054,2.504c-.097-1.806-.151-3.619-.151-5.44,0-4.699.332-9.346.974-13.918h0Z"/><path class="cls-1" d="M221.287,370.473c-.347-.05-.668.191-.717.537l-3.56,24.839c-.049.346.191.667.537.717.031.004.061.006.091.006.31,0,.581-.227.626-.543l3.56-24.839c.049-.347-.191-.667-.537-.717Z"/><path class="cls-1" d="M208.443,367.878c.12-.328-.048-.692-.377-.812-.327-.12-.692.048-.813.376l-8.676,23.63c-.12.328.048.692.377.812.072.026.145.039.218.039.258,0,.501-.159.595-.415l8.676-23.63Z"/><path class="cls-1" d="M181.764,383.401c.105.066.221.097.337.097.21,0,.416-.105.536-.296l13.422-21.342c.186-.296.097-.686-.2-.872-.295-.186-.687-.098-.873.199l-13.421,21.341c-.186.296-.097.687.199.873h0Z"/><path class="cls-1" d="M185.203,353.42c.244-.251.238-.651-.013-.895-.251-.243-.652-.237-.896.013l-17.58,18.099c-.244.251-.238.651.013.895.124.119.282.179.442.179.165,0,.33-.064.454-.192l17.58-18.099Z"/><path class="cls-1" d="M154.482,356.815c.123.182.323.28.527.28.121,0,.244-.035.352-.107l20.959-14.049c.29-.195.368-.588.173-.879-.196-.29-.589-.367-.879-.173l-20.959,14.049c-.29.195-.368.588-.173.879Z"/><path class="cls-1" d="M145.572,339.879c.099.247.337.397.588.397.079,0,.159-.014.236-.045l23.399-9.378c.325-.13.483-.499.353-.823-.131-.325-.5-.482-.824-.352l-23.399,9.377c-.325.131-.483.499-.353.824h0Z"/><path class="cls-1" d="M140.416,321.464c.054.307.321.524.624.524.036,0,.072-.003.109-.009l24.778-4.299c.345-.06.575-.388.516-.732-.06-.345-.385-.576-.733-.515l-24.778,4.299c-.344.06-.575.387-.515.732h-.001Z"/><path class="cls-1" d="M139.817,303.052l25.052.941h.024c.339,0,.62-.268.633-.61.013-.349-.26-.643-.609-.656l-25.052-.941c-.37-.018-.644.26-.657.609-.013.349.259.644.609.657Z"/><path class="cls-1" d="M142.411,284.267l24.227,6.105c.052.013.104.019.155.019.284,0,.542-.191.614-.478.086-.34-.12-.684-.459-.769l-24.227-6.105c-.342-.086-.684.12-.769.459-.086.339.12.683.459.769Z"/><path class="cls-1" d="M148.879,266.451l22.323,10.954c.09.044.185.065.279.065.233,0,.459-.13.569-.354.154-.314.024-.693-.29-.847l-22.323-10.955c-.315-.153-.694-.024-.848.29-.154.314-.024.693.29.847h0Z"/><path class="cls-1" d="M158.798,249.491c-.216.276-.168.674.107.889l19.464,15.281c.116.091.254.135.391.135.187,0,.374-.083.499-.242.216-.275.168-.673-.107-.889l-19.464-15.28c-.276-.217-.673-.168-.889.106h0Z"/><path class="cls-1" d="M187.817,255.638c.125.15.305.227.486.227.143,0,.287-.048.406-.147.269-.224.305-.624.08-.892l-15.782-18.897c-.224-.269-.624-.305-.892-.081-.269.225-.305.624-.08.892l15.782,18.898Z"/><path class="cls-1" d="M187.695,226.11l11.449,21.656c.113.215.333.338.56.338.1,0,.202-.024.296-.074.309-.163.427-.546.264-.855l-11.449-21.657c-.163-.309-.546-.427-.856-.263-.309.163-.427.546-.264.855h0Z"/><path class="cls-1" d="M213.101,242.072l-6.664-23.458c-.096-.337-.447-.532-.782-.436-.337.095-.532.445-.437.782l6.663,23.458c.08.278.334.46.609.46.058,0,.116-.008.174-.024.337-.096.532-.446.437-.782Z"/><path class="cls-1" d="M225.474,239.844c.023.334.302.59.632.59.014,0,.029,0,.043-.001.349-.024.613-.325.59-.674l-1.63-24.214c-.024-.349-.332-.617-.675-.59-.349.024-.613.326-.589.674l1.629,24.215Z"/><path class="cls-1" d="M239.862,240.856c.031.004.061.006.091.006.31,0,.581-.228.626-.543l3.431-23.942c.05-.347-.191-.667-.537-.717-.347-.05-.668.191-.717.537l-3.431,23.942c-.049.346.191.667.537.717Z"/><path class="cls-1" d="M252.83,243.31c-.12.328.048.692.377.812.071.027.145.039.218.039.258,0,.501-.158.595-.415l8.316-22.651c.12-.328-.048-.692-.377-.812-.327-.12-.693.048-.813.376l-8.316,22.651Z"/><path class="cls-1" d="M279.072,228.672c-.296-.185-.688-.097-.873.199l-12.819,20.383c-.186.296-.097.686.199.873.105.065.221.097.337.097.21,0,.416-.105.537-.297l12.818-20.382c.187-.296.098-.687-.199-.873h0Z"/><path class="cls-1" d="M276.423,257.69c-.244.251-.238.652.013.895.123.12.282.179.441.179.166,0,.33-.064.454-.192l16.761-17.256c.244-.251.238-.651-.013-.895-.251-.243-.651-.237-.895.013l-16.761,17.256Z"/><path class="cls-1" d="M306.348,255.017c-.195-.291-.589-.367-.879-.173l-19.993,13.401c-.291.195-.368.588-.173.879.122.182.323.28.526.28.122,0,.244-.034.353-.107l19.993-13.401c.291-.195.368-.588.173-.879Z"/><path class="cls-1" d="M315.319,271.854c-.13-.325-.499-.482-.823-.352l-22.375,8.967c-.324.13-.482.499-.352.823.1.248.337.397.589.397.078,0,.158-.014.236-.045l22.374-8.967c.324-.13.482-.498.351-.823Z"/><path class="cls-1" d="M320.586,290.201c-.06-.344-.385-.577-.732-.515l-23.806,4.131c-.345.06-.575.387-.516.731.054.308.321.525.624.525.036,0,.072-.003.109-.009l23.806-4.131c.344-.06.575-.387.515-.732Z"/><path class="cls-1" d="M321.303,308.597l-24.215-.909c-.362-.017-.643.259-.657.609-.013.349.26.643.609.656l24.215.909h.025c.339,0,.62-.268.632-.609.013-.35-.26-.643-.609-.656Z"/><path class="cls-1" d="M318.823,327.414l-23.592-5.945c-.342-.086-.683.12-.769.459-.085.339.12.683.459.769l23.592,5.944c.052.013.104.02.155.02.283,0,.541-.192.614-.479.085-.339-.12-.683-.459-.768Z"/><path class="cls-1" d="M312.455,345.31l-21.942-10.768c-.315-.154-.694-.024-.848.29-.154.314-.024.693.29.847l21.942,10.768c.09.044.185.064.279.064.233,0,.459-.13.569-.354.154-.314.024-.693-.29-.847Z"/><path class="cls-1" d="M282.385,347.323l19.313,15.163c.117.091.255.135.391.135.188,0,.374-.083.499-.242.216-.275.168-.673-.107-.889l-19.313-15.163c-.275-.216-.673-.168-.889.107-.216.275-.169.673.106.889Z"/><path class="cls-1" d="M273.543,356.317c-.224-.269-.623-.305-.891-.08-.269.224-.305.623-.081.891l15.811,18.933c.125.15.305.228.487.228.143,0,.287-.048.405-.148.269-.223.305-.623.08-.891l-15.811-18.933Z"/><path class="cls-1" d="M273.651,385.996l-11.588-21.919c-.163-.308-.546-.427-.856-.264-.309.164-.427.546-.264.856l11.588,21.919c.113.215.333.337.56.337.1,0,.202-.023.296-.073.309-.164.427-.546.264-.856Z"/><path class="cls-1" d="M248.013,369.612l6.808,23.967c.079.278.333.46.609.46.057,0,.115-.008.173-.024.337-.096.532-.445.437-.782l-6.808-23.966c-.097-.337-.448-.531-.783-.437-.337.096-.532.446-.437.782h.001Z"/><path class="cls-1" d="M235.619,371.654c-.024-.348-.33-.612-.675-.589-.349.024-.613.325-.59.675l1.68,24.95c.023.334.302.59.632.59.014,0,.029,0,.043-.001.35-.024.613-.326.59-.675l-1.68-24.95Z"/><path class="cls-1" d="M231.31,503.504c-.119-.167-.312-.266-.517-.266s-.398.099-.517.266l-31.176,43.874c-.115.161-.148.368-.088.557.06.189.205.34.392.406l30.499,10.816c.069.025.14.036.212.036.069,0,.138-.011.203-.033l31.858-10.786c.189-.064.338-.214.399-.404.062-.191.03-.399-.086-.562l-31.179-43.904ZM230.12,557.89l-29.502-10.462,30.175-42.463,30.171,42.483-30.844,10.442Z"/><path class="cls-1" d="M218.393,415.049c1.106.397,5.537,2.069,7.573,4.104,1.605,1.604,2.776,3.058,3.376,3.846-21.847-.394-44.539-8.256-44.772-8.337-.262-.091-.553-.002-.719.221-.165.222-.166.527,0,.751l46.888,63.805c.119.163.309.258.51.258h.008c.204-.003.395-.103.512-.27l44.81-64.01c.16-.23.151-.537-.023-.757-.174-.219-.471-.298-.731-.195-.214.085-21.577,8.492-44.567,8.549.655-.906,2.086-2.731,4.108-4.425,2.662-2.23,6.291-3.34,7.025-3.548,24.781-2.683,47.74-13.624,65.617-31.492,17.867-17.856,28.812-40.784,31.505-65.534l.03.011c.018-.044,1.78-4.529,4.291-7.523,2.357-2.809,4.945-4.419,4.971-4.435.188-.116.303-.322.302-.542-.002-.22-.117-.425-.306-.539-.022-.014-2.259-1.376-4.636-3.752-2.347-2.346-4.603-7.361-4.626-7.411l-.029.013c-2.698-24.74-13.641-47.658-31.502-65.508-17.848-17.839-40.761-28.773-65.496-31.479l.012-.05c-.042-.01-4.192-1.1-7.158-3.585-1.835-1.537-3.183-3.181-3.907-4.15,22.588.302,43.311,8.456,43.521,8.54.077.03.156.045.235.045.189,0,.374-.085.497-.24.174-.22.183-.527.023-.756l-44.81-64.01c-.117-.167-.308-.268-.512-.27-.189,0-.397.094-.518.258l-46.888,63.805c-.165.223-.164.528.001.751.165.223.459.312.719.221.235-.083,23.376-8.102,45.42-8.348-.643.824-1.735,2.146-3.18,3.591-2.325,2.323-7.772,4.174-7.827,4.193l.004.011c-24.715,2.715-47.608,13.647-65.443,31.473-17.944,17.933-28.907,40.982-31.541,65.854-.564,1.196-2.477,5.071-4.458,7.051-2.37,2.369-4.614,3.739-4.637,3.753-.188.114-.304.318-.305.539,0,.22.114.426.301.541.026.016,2.615,1.626,4.971,4.435,2.059,2.454,3.616,5.916,4.118,7.104,2.617,24.906,13.585,47.988,31.55,65.943,17.896,17.886,40.883,28.831,65.694,31.5ZM231.237,477.977l-45.194-61.498c6.122,1.95,26.076,7.803,44.98,7.803,19.321,0,37.542-5.867,43.355-7.933l-43.141,61.628ZM234.551,417.619c-2.063,1.728-3.523,3.553-4.249,4.547-.636-.832-1.818-2.286-3.441-3.909-1.1-1.099-2.767-2.076-4.321-2.837,2.588.181,5.193.276,7.813.276,2.543,0,5.072-.092,7.585-.262-1.122.566-2.317,1.288-3.387,2.185ZM343.268,302.13c1.623,1.621,3.164,2.78,4.066,3.405-1,.72-2.777,2.133-4.471,4.154-1.21,1.442-2.239,3.173-3.007,4.645.209-2.779.317-5.579.317-8.395,0-2.93-.119-5.841-.346-8.731.905,1.641,2.141,3.622,3.441,4.922ZM230.392,134.093l43.142,61.628c-5.814-2.065-24.035-7.932-43.356-7.932-18.904,0-38.857,5.852-44.979,7.802l45.193-61.498h0ZM226.861,193.547c1.624-1.622,2.805-3.077,3.441-3.909.726.994,2.186,2.82,4.249,4.547,1.123.941,2.384,1.69,3.554,2.268-2.568-.178-5.153-.272-7.752-.272-2.679,0-5.342.098-7.987.286,1.603-.772,3.354-1.78,4.495-2.92ZM153.595,229.224c20.503-20.491,47.763-31.777,76.758-31.777s56.256,11.286,76.758,31.777c20.504,20.491,31.795,47.736,31.795,76.715s-11.291,56.224-31.795,76.715c-17.681,17.671-40.39,28.489-64.902,31.133l-.002-.009c-.009.002-.03.008-.058.015-3.891.418-7.826.637-11.795.637-3.928,0-7.823-.214-11.674-.623-.071-.025-.12-.042-.137-.047l-.01.031c-24.526-2.638-47.248-13.457-64.938-31.137-17.728-17.718-28.562-40.485-31.172-65.056l.08-.031c-.01-.025-.049-.125-.115-.284-.386-3.744-.587-7.529-.587-11.344,0-3.837.204-7.643.595-11.407.048-.105.078-.172.087-.192l-.063-.029c2.605-24.583,13.44-47.362,31.175-65.087ZM118.002,309.689c-1.695-2.021-3.471-3.434-4.471-4.154.901-.625,2.443-1.784,4.065-3.405,1.213-1.213,2.37-3.018,3.254-4.587-.209,2.78-.316,5.579-.316,8.396,0,2.698.098,5.381.29,8.046-.745-1.392-1.706-2.966-2.822-4.296Z"/><path class="cls-1" d="M206.971,186.024l-5.667-3.785c-.29-.194-.684-.116-.878.175-.195.291-.117.684.174.879l5.667,3.784c.108.072.23.107.352.107.204,0,.405-.099.527-.282.194-.291.116-.684-.175-.878Z"/><path class="cls-1" d="M205.538,176.687c-.248-.248-.648-.248-.896,0-.247.246-.247.648,0,.895l8.032,8.027c.124.124.286.186.448.186s.325-.062.448-.186c.248-.247.248-.648,0-.895l-8.032-8.027h0Z"/><path class="cls-1" d="M210.016,170.797c-.195-.291-.59-.369-.879-.175-.291.195-.369.588-.175.879l8.801,13.164c.122.182.323.281.527.281.121,0,.243-.034.351-.107.291-.194.369-.587.175-.878l-8.8-13.164Z"/><path class="cls-1" d="M215.157,163.99c-.133-.323-.503-.477-.828-.343-.323.134-.476.504-.343.827l8.106,19.559c.101.244.337.391.586.391.08,0,.163-.015.242-.048.324-.134.477-.504.343-.828l-8.106-19.558h0Z"/><path class="cls-1" d="M221.668,155.297c-.068-.343-.403-.567-.745-.498-.343.068-.566.401-.497.745l5.588,28.08c.06.302.325.51.621.51.041,0,.083-.004.124-.012.343-.068.566-.402.498-.745l-5.589-28.08Z"/><path class="cls-1" d="M231.038,183.406v-40.718c0-.35-.284-.634-.634-.634s-.633.284-.633.634v40.718c0,.35.284.633.633.633s.634-.283.634-.633Z"/><path class="cls-1" d="M234.047,184.129c.042.009.083.013.125.013.295,0,.56-.209.62-.51l5.522-27.745c.068-.343-.154-.676-.498-.744-.338-.067-.676.154-.745.497l-5.522,27.745c-.068.343.155.676.498.744Z"/><path class="cls-1" d="M237.881,184.395c.079.033.161.048.242.048.248,0,.484-.147.585-.391l7.885-19.024c.133-.323-.02-.694-.343-.827-.324-.134-.695.019-.828.342l-7.884,19.025c-.134.323.019.693.343.827h0Z"/><path class="cls-1" d="M242.141,184.879c.108.072.23.106.351.106.204,0,.405-.098.527-.281l8.409-12.577c.194-.291.116-.684-.175-.879-.29-.193-.684-.116-.879.175l-8.408,12.577c-.195.291-.116.685.175.879Z"/><path class="cls-1" d="M247.154,185.693c.124.124.286.186.448.186s.324-.062.448-.186l7.489-7.485c.248-.247.248-.648,0-.895-.247-.247-.648-.247-.896,0l-7.489,7.485c-.247.247-.248.648,0,.895Z"/><path class="cls-1" d="M253.412,187.07c.122.183.323.281.527.281.121,0,.243-.034.351-.106l5.059-3.378c.291-.195.369-.588.175-.879-.195-.291-.589-.369-.879-.175l-5.058,3.378c-.291.195-.369.588-.175.879Z"/><path class="cls-1" d="M207.568,426.073c-.195-.291-.589-.369-.878-.175l-5.667,3.785c-.291.194-.369.587-.175.878.122.183.323.281.527.281.121,0,.243-.034.351-.106l5.667-3.785c.291-.194.369-.587.175-.878Z"/><path class="cls-1" d="M213.992,427.366c-.247-.247-.648-.247-.895,0l-8.032,8.027c-.248.247-.248.648,0,.895.123.124.285.186.448.186.162,0,.324-.062.448-.186l8.032-8.027c.247-.247.247-.648,0-.895h0Z"/><path class="cls-1" d="M219.064,428.136c-.291-.194-.684-.117-.879.175l-8.8,13.164c-.195.29-.117.683.174.877.109.073.231.107.352.107.204,0,.405-.098.527-.281l8.801-13.164c.194-.291.116-.684-.175-.878Z"/><path class="cls-1" d="M223.343,428.599c-.324-.136-.694.02-.828.342l-8.106,19.559c-.134.324.019.694.343.828.079.033.161.048.242.048.248,0,.484-.147.585-.391l8.106-19.559c.134-.324-.019-.694-.342-.827Z"/><path class="cls-1" d="M227.182,428.853c-.34-.07-.677.154-.745.498l-5.589,28.08c-.068.343.154.676.498.744.042.009.083.013.124.013.296,0,.561-.208.621-.51l5.588-28.08c.069-.343-.154-.677-.497-.745Z"/><path class="cls-1" d="M230.193,429.569v40.718c0,.35.284.634.634.634s.633-.284.633-.634v-40.718c0-.35-.283-.633-.633-.633s-.634.283-.634.633Z"/><path class="cls-1" d="M239.494,457.335c.06.301.324.509.621.509.041,0,.082-.004.124-.012.343-.068.566-.402.498-.745l-5.522-27.744c-.069-.343-.404-.569-.745-.497-.343.068-.566.401-.498.744l5.522,27.745Z"/><path class="cls-1" d="M245.845,448.433c.101.243.337.39.586.39.08,0,.163-.015.242-.048.323-.134.476-.504.342-.827l-7.884-19.024c-.133-.323-.503-.477-.828-.343-.323.134-.476.504-.342.827l7.884,19.025Z"/><path class="cls-1" d="M250.797,441.551c.122.184.323.282.527.282.121,0,.243-.035.351-.107.291-.194.369-.587.175-.878l-8.409-12.577c-.194-.292-.588-.369-.878-.175-.291.194-.369.588-.175.878l8.409,12.577Z"/><path class="cls-1" d="M255.066,435.662c.124.124.286.185.448.185s.324-.061.448-.185c.247-.247.247-.648,0-.895l-7.489-7.485c-.248-.248-.648-.248-.896,0-.247.247-.247.648,0,.895l7.489,7.485Z"/><path class="cls-1" d="M254.009,426.784l5.059,3.377c.108.073.23.107.351.107.204,0,.405-.098.527-.281.194-.291.116-.684-.175-.878l-5.058-3.378c-.29-.193-.684-.117-.879.175-.194.29-.116.683.175.878Z"/><path class="cls-1" d="M229.694,97.472h1.267c0-3.613,2.158-5.771,5.774-5.771v-1.266c-3.616,0-5.774-2.157-5.774-5.771h-1.267c0,3.613-2.159,5.771-5.774,5.771v1.266c3.615,0,5.774,2.157,5.774,5.771ZM230.327,87.951c.625,1.426,1.692,2.493,3.119,3.117-1.427.624-2.494,1.691-3.119,3.117-.624-1.426-1.691-2.492-3.118-3.117,1.427-.624,2.494-1.691,3.118-3.117Z"/><path class="cls-1" d="M221.088,535.292v1.266c5.947,0,9.497,3.549,9.497,9.493h1.267c0-5.944,3.551-9.493,9.498-9.493v-1.266c-5.947,0-9.498-3.548-9.498-9.492h-1.267c0,5.944-3.55,9.492-9.497,9.492ZM237.192,535.925c-2.919.978-4.995,3.053-5.974,5.97-.978-2.917-3.054-4.991-5.973-5.97,2.919-.978,4.995-3.052,5.973-5.97.979,2.917,3.055,4.992,5.974,5.97Z"/><path class="cls-1" d="M187.068,24.792c-.35,0-.633.283-.633.633v4.89c0,.35.283.633.633.633s.634-.283.634-.633v-4.89c0-.35-.284-.633-.634-.633Z"/><path class="cls-1" d="M192.136,24.792c-.35,0-.634.283-.634.633v4.89c0,.35.284.633.634.633s.633-.283.633-.633v-4.89c0-.35-.283-.633-.633-.633Z"/><path class="cls-1" d="M197.204,24.792c-.35,0-.634.283-.634.633v4.89c0,.35.284.633.634.633s.633-.283.633-.633v-4.89c0-.35-.284-.633-.633-.633Z"/><path class="cls-1" d="M202.272,24.792c-.35,0-.634.283-.634.633v4.89c0,.35.284.633.634.633s.633-.283.633-.633v-4.89c0-.35-.284-.633-.633-.633Z"/><path class="cls-1" d="M207.34,24.792c-.35,0-.634.283-.634.633v4.89c0,.35.284.633.634.633s.633-.283.633-.633v-4.89c0-.35-.284-.633-.633-.633Z"/><path class="cls-1" d="M212.407,24.792c-.35,0-.634.283-.634.633v4.89c0,.35.284.633.634.633s.633-.283.633-.633v-4.89c0-.35-.283-.633-.633-.633Z"/><path class="cls-1" d="M217.475,24.792c-.35,0-.634.283-.634.633v4.89c0,.35.284.633.634.633s.633-.283.633-.633v-4.89c0-.35-.284-.633-.633-.633Z"/><path class="cls-1" d="M222.543,24.792c-.35,0-.634.283-.634.633v4.89c0,.35.284.633.634.633s.633-.283.633-.633v-4.89c0-.35-.284-.633-.633-.633Z"/><path class="cls-1" d="M227.611,24.792c-.35,0-.634.283-.634.633v4.89c0,.35.284.633.634.633s.633-.283.633-.633v-4.89c0-.35-.284-.633-.633-.633Z"/><path class="cls-1" d="M232.678,24.792c-.349,0-.633.283-.633.633v4.89c0,.35.284.633.633.633s.634-.283.634-.633v-4.89c0-.35-.284-.633-.634-.633Z"/><path class="cls-1" d="M237.746,24.792c-.349,0-.633.283-.633.633v4.89c0,.35.284.633.633.633s.634-.283.634-.633v-4.89c0-.35-.284-.633-.634-.633Z"/><path class="cls-1" d="M242.814,24.792c-.35,0-.633.283-.633.633v4.89c0,.35.283.633.633.633s.634-.283.634-.633v-4.89c0-.35-.284-.633-.634-.633Z"/><path class="cls-1" d="M247.882,24.792c-.35,0-.633.283-.633.633v4.89c0,.35.283.633.633.633s.633-.283.633-.633v-4.89c0-.35-.283-.633-.633-.633Z"/><path class="cls-1" d="M252.95,24.792c-.35,0-.634.283-.634.633v4.89c0,.35.284.633.634.633s.633-.283.633-.633v-4.89c0-.35-.283-.633-.633-.633Z"/><path class="cls-1" d="M258.018,24.792c-.35,0-.634.283-.634.633v4.89c0,.35.284.633.634.633s.633-.283.633-.633v-4.89c0-.35-.284-.633-.633-.633Z"/><path class="cls-1" d="M263.086,24.792c-.35,0-.634.283-.634.633v4.89c0,.35.284.633.634.633s.633-.283.633-.633v-4.89c0-.35-.284-.633-.633-.633Z"/><path class="cls-1" d="M268.153,24.792c-.349,0-.633.283-.633.633v4.89c0,.35.284.633.633.633s.634-.283.634-.633v-4.89c0-.35-.284-.633-.634-.633Z"/><path class="cls-1" d="M273.221,24.792c-.349,0-.633.283-.633.633v4.89c0,.35.284.633.633.633s.634-.283.634-.633v-4.89c0-.35-.284-.633-.634-.633Z"/><path class="cls-1" d="M428.574,30.765l-115.607-.808h-.005c-.198,0-.385.093-.505.251l-51.754,68.474c-.169.224-.171.533-.003.758l116.327,156.918c.12.162.31.256.509.256.03,0,.06-.002.09-.007.231-.033.425-.191.505-.409.046-.128,3.186-8.543,10.771-19.124l.002-.002h0c1.311-1.83,2.755-3.723,4.339-5.65l.036-.027-.007-.009c1.425-1.732,2.964-3.49,4.619-5.252l.047-.035-.006-.008c2.116-2.25,4.423-4.505,6.934-6.719,13.833-12.188,23.728-16.192,23.826-16.23.242-.096.4-.329.4-.589l.11-171.156c0-.348-.281-.631-.629-.634h.001ZM427.836,187.499l-.005,9.452-118.653-160.303,3.537-4.68,115.121,155.531ZM313.745,31.229l7.038.049,107.061,144.642-.006,9.452L313.745,31.229ZM322.367,31.289l7.039.049,98.445,133.003-.006,9.452L322.367,31.289ZM330.99,31.349l7.038.049,89.831,121.363-.006,9.451L330.99,31.349ZM339.612,31.409l7.039.049,81.215,109.724-.006,9.451-88.248-119.225ZM348.235,31.469l7.038.049,72.601,98.085-.006,9.452-79.633-107.587ZM356.857,31.53l7.039.049,63.985,86.446-.006,9.452-71.018-95.947ZM365.48,31.59l7.038.049,55.37,74.807-.006,9.452-62.402-84.308ZM374.102,31.65l7.039.049,46.755,63.168-.006,9.452-53.788-72.669ZM382.725,31.711l7.038.049,38.14,51.528-.006,9.452-45.172-61.029h0ZM427.926,48.551l-.006,9.452-19.327-26.111,7.038.049,12.295,16.61ZM417.215,31.951l7.038.049,3.68,4.971-.006,9.452-10.712-14.471h0ZM427.918,60.13l-.006,9.452-27.942-37.751,7.038.049,20.91,28.25ZM427.911,71.709l-.006,9.451-36.557-49.389,7.038.049,29.525,39.889ZM427.934,34.845l-2.097-2.833,2.099.015-.002,2.818ZM296.177,53.849l3.537-4.68,117.641,158.937c-1.424.951-2.964,2.028-4.602,3.243l-116.576-157.5ZM411.74,212.109c-1.407,1.065-2.881,2.229-4.413,3.498l-115.484-156.023,3.537-4.68,116.36,157.206ZM300.51,48.116l3.538-4.681,119.197,161.039c-1.37.771-2.993,1.741-4.83,2.935l-117.905-159.293ZM270.173,88.253l3.538-4.681,113.631,153.519c-1.22,1.733-2.322,3.404-3.311,4.987l-113.858-153.826ZM383.315,243.241c-1.189,1.96-2.198,3.763-3.036,5.356l-114.425-154.591-.066.049,3.589-4.749,113.938,153.934ZM377.37,254.694l-115.371-155.627,3.044-4.027,114.587,154.811c-1.096,2.161-1.839,3.838-2.26,4.844h0ZM274.507,82.519l3.538-4.68,113.626,153.513c-1.278,1.583-2.459,3.139-3.555,4.656l-113.608-153.489h-.001ZM278.841,76.785l3.538-4.68,113.911,153.898c-1.342,1.455-2.604,2.905-3.79,4.339l-113.659-153.557ZM397.169,225.06l-113.994-154.008,3.537-4.68,114.474,154.658c-1.409,1.339-2.746,2.685-4.017,4.031ZM404.029,218.424c-.652.575-1.286,1.153-1.912,1.733l-114.608-154.84,3.538-4.68,115.306,155.783c-.761.642-1.536,1.31-2.324,2.004ZM424.365,203.857l-119.521-161.475,3.538-4.68,119.447,161.376-.002,3.058c-.578.255-1.768.806-3.462,1.721Z"/><path class="cls-1" d="M140.644,179.802l-.004-.006,59.569-80.355c.167-.226.166-.534-.004-.758l-51.754-68.474c-.12-.158-.307-.252-.505-.252h-.005l-115.607.808c-.348.002-.629.285-.629.633l.11,171.156c0,.26.159.493.4.588.098.039,9.994,4.042,23.826,16.231,19.366,17.066,26.666,36.63,26.737,36.825.08.22.274.377.504.41.03.004.061.007.091.007.199,0,.389-.094.509-.257l56.741-76.541.021-.015h0ZM190.57,110.315l-3.503,4.726L125.145,31.383l6.965-.049,58.46,78.982h0ZM133.678,31.323l6.966-.049,54.219,73.251-3.504,4.726-57.681-77.928ZM186.278,116.105l-3.503,4.727L116.611,31.442l6.966-.049,62.701,84.711h0ZM181.986,121.895l-3.504,4.726L108.077,31.502l6.966-.049,66.943,90.442ZM177.693,127.685l-3.503,4.727L99.543,31.562l6.966-.049,71.185,96.172h-.001ZM173.401,133.475l-3.503,4.726L91.009,31.621l6.966-.049,75.426,101.903h0ZM169.109,139.265l-3.504,4.727L82.476,31.681l6.966-.049,79.668,107.633ZM164.817,145.055l-3.504,4.726L73.942,31.74l6.966-.049,83.909,113.363h.001ZM160.524,150.845l-3.503,4.727L65.408,31.8l6.966-.049,88.15,119.094h0ZM156.232,156.635l-3.503,4.727L56.874,31.86l6.966-.049,92.392,124.824ZM151.94,162.426l-3.504,4.726L48.34,31.919l6.966-.049,96.634,130.555ZM147.647,168.215l-3.503,4.726L39.807,31.979l6.965-.049,100.875,136.285ZM198.909,99.067l-3.258,4.394-53.439-72.198,5.42-.038,51.277,67.842ZM38.239,31.99l105.116,142.016-3.503,4.726L32.974,34.337v-2.31s5.265-.037,5.265-.037ZM33.072,187.256l21.763,29.402c-6.07-5.147-11.297-8.69-15.147-11.004l-6.61-8.93-.006-9.468ZM33.057,164.058l58.791,79.428-3.504,4.726-55.281-74.686-.006-9.469h0ZM33.056,161.926l-.006-9.467,63.091,85.237-3.504,4.726-59.581-80.496ZM33.048,150.328l-.006-9.469,67.391,91.047-3.504,4.726-63.881-86.304ZM33.041,138.728l-.006-9.468,71.69,96.855-3.504,4.727-68.18-92.114ZM33.033,127.13l-.006-9.469,75.99,102.665-3.504,4.726L33.033,127.13ZM33.026,115.53l-.006-9.467,80.289,108.473-3.503,4.726L33.026,115.53ZM33.019,103.931l-.006-9.468,84.589,114.282-3.504,4.726L33.019,103.931ZM33.011,92.332l-.006-9.468,88.889,120.091-3.504,4.726L33.011,92.332ZM33.004,80.733l-.006-9.468,93.188,125.9-3.503,4.727L33.004,80.733ZM32.996,69.134l-.006-9.468,97.488,131.709-3.503,4.726L32.996,69.134ZM32.989,57.535l-.006-9.468,101.788,137.519-3.504,4.726L32.989,57.535ZM32.981,45.936l-.006-9.468,106.088,143.327-3.503,4.727L32.981,45.936ZM33.079,198.855l3.862,5.218c-1.908-1.046-3.238-1.663-3.86-1.937l-.002-3.281ZM83.538,254.694c-1.734-4.142-8.872-19.584-24.129-33.958l.013-.009-26.352-35.603-.006-9.468,54.491,73.619-4.017,5.418h0Z"/><path class="cls-1" d="M58.265,286.362c-6.139-1.929-12.664-1.351-18.371,1.625-5.706,2.977-9.911,7.995-11.84,14.132-3.983,12.669,3.09,26.213,15.766,30.194,2.395.752,4.819,1.11,7.207,1.11,10.247,0,19.773-6.592,23.004-16.867,3.983-12.669-3.09-26.214-15.766-30.194ZM72.823,316.177c-3.773,12.003-16.613,18.698-28.623,14.928-12.008-3.772-18.71-16.605-14.937-28.606,1.828-5.814,5.812-10.569,11.218-13.389,5.406-2.82,11.586-3.366,17.405-1.54,12.009,3.771,18.71,16.604,14.937,28.607Z"/><path class="cls-1" d="M56.68,291.236c-4.792-1.504-9.884-1.055-14.338,1.269-4.454,2.323-7.736,6.24-9.242,11.03-1.506,4.79-1.055,9.879,1.269,14.331,2.325,4.451,6.244,7.731,11.037,9.236,1.87.587,3.762.866,5.625.866,7.998,0,15.434-5.145,17.955-13.165,3.108-9.888-2.412-20.46-12.306-23.566h0ZM68.332,306.256l-8.703-4.051-.032.067c-1.319-1.603-3.099-2.856-5.225-3.523-.003-.001-.007-.002-.011-.003l6.685-2.434.312,5.861,1.265-.067-.34-6.39c3.207,2.685,5.349,6.443,6.048,10.541h0ZM48.106,318.685c-5.165-1.623-8.049-7.144-6.426-12.306.786-2.501,2.5-4.547,4.826-5.76,2.326-1.214,4.985-1.448,7.487-.662,5.166,1.622,8.049,7.142,6.426,12.306-1.624,5.162-7.147,8.043-12.313,6.422ZM56.3,292.444c1.81.568,3.46,1.408,4.926,2.454l-9.11,3.318.027.076c-2.12-.215-4.258.188-6.193,1.19l2.999-6.435,4.368,3.925.847-.942-4.805-4.317c2.309-.223,4.661.016,6.94.731h0ZM42.927,293.627c1.647-.858,3.387-1.438,5.166-1.743l-4.111,8.823.057.026c-1.646,1.337-2.872,3.119-3.538,5.181l-2.416-6.626,5.865-.311-.067-1.264-6.412.34c1.48-1.806,3.322-3.313,5.456-4.425h0ZM34.308,303.914c.547-1.738,1.348-3.352,2.363-4.805l3.321,9.106.025-.01c-.218,2.151.209,4.273,1.154,6.132l-6.352-2.957,3.927-4.365-.942-.847-4.227,4.698c-.225-2.312.013-4.668.73-6.952ZM35.492,317.28c-.831-1.592-1.403-3.272-1.716-4.989l8.704,4.052c1.297,1.586,3.045,2.83,5.13,3.51l-6.546,2.384-.311-5.862-1.265.066.33,6.209c-1.762-1.465-3.233-3.279-4.326-5.371h0ZM45.785,325.894c-1.709-.537-3.297-1.317-4.73-2.306l8.908-3.245c.361.036.722.06,1.081.06,1.784,0,3.52-.436,5.069-1.232l-2.95,6.33-4.368-3.925-.847.941,4.58,4.116c-2.212.191-4.496-.034-6.743-.739ZM54.133,326.419l3.997-8.578h-.002c1.586-1.313,2.827-3.076,3.492-5.179l2.406,6.598-5.865.311.067,1.264,6.193-.328c-2.642,3.105-6.298,5.191-10.288,5.912ZM67.777,314.424c-.559,1.776-1.378,3.4-2.399,4.846l-3.259-8.936-.03.011c.202-2.169-.248-4.307-1.226-6.169l6.428,2.993-3.927,4.365.942.847,4.211-4.68c.189,2.206-.037,4.483-.741,6.723h0Z"/><path class="cls-1" d="M404.423,330.572c2.395.752,4.82,1.11,7.207,1.11,10.247,0,19.774-6.592,23.004-16.867,3.982-12.669-3.09-26.214-15.766-30.193-6.142-1.929-12.665-1.351-18.371,1.625-5.706,2.976-9.911,7.995-11.84,14.132-3.983,12.668,3.09,26.213,15.766,30.193ZM389.866,300.758c1.827-5.814,5.811-10.569,11.217-13.389,5.406-2.82,11.587-3.366,17.405-1.539,12.01,3.77,18.71,16.603,14.937,28.606-3.773,12.002-16.613,18.7-28.622,14.929-12.009-3.773-18.71-16.605-14.937-28.607Z"/><path class="cls-1" d="M406.008,325.361c1.87.587,3.762.866,5.625.866,7.998,0,15.434-5.145,17.956-13.164,3.107-9.888-2.413-20.46-12.306-23.567-4.792-1.505-9.885-1.055-14.339,1.269-4.454,2.323-7.736,6.24-9.241,11.03-1.506,4.79-1.056,9.879,1.269,14.33,2.324,4.452,6.243,7.731,11.036,9.236ZM406.388,324.153c-1.726-.542-3.31-1.328-4.725-2.308l8.902-3.243c.361.036.722.06,1.081.06,1.783,0,3.519-.435,5.069-1.231l-2.95,6.329-4.368-3.925-.847.942,4.58,4.115c-2.212.191-4.496-.034-6.742-.739ZM402.283,304.638c1.317-4.188,5.2-6.874,9.376-6.874.973,0,1.961.146,2.937.452,5.166,1.622,8.049,7.143,6.426,12.306-1.624,5.163-7.147,8.043-12.313,6.422-5.166-1.622-8.049-7.143-6.426-12.306ZM414.735,324.678l3.997-8.577h-.001c1.586-1.313,2.827-3.076,3.492-5.179l2.406,6.597-5.865.311.067,1.265,6.193-.329c-2.642,3.106-6.299,5.192-10.289,5.913h0ZM428.38,312.683c-.559,1.777-1.378,3.4-2.399,4.846l-3.259-8.936-.028.01c.2-2.107-.209-4.229-1.212-6.149-.002-.005-.005-.01-.008-.015l6.421,2.989-3.927,4.366.942.846,4.211-4.68c.188,2.207-.037,4.484-.741,6.724h0ZM428.935,304.515l-8.704-4.051-.028.059c-1.352-1.643-3.149-2.863-5.227-3.515-.004-.001-.007-.002-.01-.003l6.685-2.435.311,5.862,1.266-.067-.34-6.39c3.208,2.685,5.349,6.442,6.047,10.54ZM416.903,290.703c1.81.568,3.46,1.408,4.926,2.455l-9.11,3.318.028.076c-2.176-.216-4.325.226-6.198,1.197l3.003-6.443,4.368,3.925.847-.942-4.804-4.318c2.308-.222,4.66.016,6.94.732ZM403.53,291.886c1.647-.858,3.388-1.438,5.167-1.743l-4.112,8.822.066.031c-1.607,1.304-2.865,3.069-3.546,5.177l-2.416-6.626,5.865-.311-.067-1.265-6.412.341c1.48-1.806,3.322-3.313,5.455-4.426h0ZM394.911,302.174c.547-1.74,1.348-3.353,2.363-4.806l3.321,9.106.025-.009c-.218,2.15.209,4.272,1.154,6.13l-6.352-2.957,3.927-4.365-.942-.847-4.22,4.691c-.223-2.275-.003-4.629.724-6.943ZM394.393,310.556l8.688,4.044c1.297,1.587,3.046,2.832,5.132,3.512l-6.546,2.384-.311-5.862-1.265.066.329,6.194c-3.16-2.639-5.29-6.318-6.027-10.339h0Z"/><path class="cls-1" d="M392.295,285.239c.223.15.518.142.734-.02.089-.066,9.021-6.7,18.833-6.812,10.603-.13,19.354,6.849,19.441,6.92.116.094.257.141.399.141.118,0,.238-.033.342-.101.231-.148.34-.427.27-.691-.028-.112-2.953-11.23-7.433-19.558-5.555-10.33-12.324-18.193-12.392-18.271-.117-.136-.287-.215-.466-.219-.18-.003-.352.07-.475.2-.081.087-8.111,8.702-12.262,17.26-4.019,8.284-7.219,20.343-7.251,20.464-.069.261.036.537.259.687h.001ZM430.599,283.249c-2.918-1.98-9.761-5.945-17.955-6.102v-28.124c2.136,2.653,6.97,8.973,11.122,16.694,3.355,6.24,5.831,14.094,6.833,17.532ZM400.426,264.64c3.157-6.508,8.626-13.075,10.951-15.725v28.238c-7.761.24-14.724,4.159-17.654,6.054,1.021-3.586,3.622-12.215,6.703-18.567h0Z"/><path class="cls-1" d="M412.184,368.856c.175,0,.342-.072.462-.2.081-.086,8.111-8.702,12.262-17.259,4.02-8.286,7.22-20.344,7.251-20.465.069-.261-.035-.537-.259-.687-.223-.15-.519-.142-.734.02-.089.067-9.02,6.7-18.833,6.812-10.593.133-19.354-6.849-19.441-6.92-.212-.171-.511-.188-.742-.04-.23.148-.339.427-.27.692.029.111,2.954,11.229,7.433,19.558,5.556,10.33,12.324,18.192,12.392,18.27.117.136.288.216.467.219h.012ZM423.768,350.845c-3.089,6.368-8.39,12.79-10.795,15.546v-28.064c7.699-.287,14.588-4.167,17.499-6.049-1.021,3.585-3.621,12.213-6.704,18.567ZM400.429,349.768c-3.356-6.24-5.831-14.095-6.833-17.533,2.936,1.993,9.844,5.998,18.111,6.107v28.313c-2.048-2.528-7.02-8.969-11.278-16.887Z"/><path class="cls-1" d="M50.984,248.436c-.081.086-8.111,8.702-12.262,17.259-4.02,8.285-7.219,20.344-7.251,20.465-.069.26.035.536.259.686.224.15.519.143.734-.019.089-.068,9.009-6.701,18.833-6.813.092-.001.182-.002.274-.002,10.484,0,19.081,6.852,19.167,6.922.116.094.257.141.399.141.119,0,.238-.033.343-.101.23-.148.339-.427.27-.692-.029-.111-2.954-11.229-7.433-19.558-5.556-10.33-12.325-18.192-12.393-18.27-.117-.136-.287-.215-.466-.219-.176-.001-.352.069-.475.2h0ZM39.862,266.248c3.157-6.508,8.626-13.075,10.951-15.726v28.239c-7.762.24-14.724,4.158-17.655,6.053,1.021-3.585,3.621-12.212,6.703-18.566ZM70.036,284.857c-2.918-1.981-9.761-5.945-17.955-6.103v-28.123c2.135,2.651,6.967,8.969,11.122,16.694,3.356,6.24,5.831,14.094,6.834,17.532Z"/><path class="cls-1" d="M71.336,331.853c-.224-.15-.519-.142-.734.02-.089.067-9.02,6.7-18.833,6.813-.092.001-.182.002-.273.002-10.484,0-19.081-6.852-19.167-6.922-.213-.172-.512-.188-.742-.041-.23.149-.339.428-.27.692.029.112,2.953,11.23,7.432,19.558,5.556,10.331,12.325,18.193,12.393,18.271.117.135.287.215.466.219h.012c.175,0,.343-.073.462-.201.081-.086,8.111-8.701,12.262-17.259,4.02-8.285,7.219-20.344,7.251-20.465.069-.26-.035-.536-.259-.687ZM39.865,351.375c-3.356-6.24-5.831-14.095-6.833-17.532,2.936,1.993,9.848,5.995,18.111,6.105v28.314c-2.047-2.527-7.019-8.968-11.278-16.887ZM63.205,352.452c-3.089,6.369-8.39,12.79-10.795,15.547v-28.064c7.699-.287,14.588-4.167,17.498-6.05-1.021,3.586-3.622,12.215-6.703,18.567Z"/><path class="cls-1" d="M447.525,410.296c-41.46-14.432-69.972-52.426-72.633-95.821,0,0-.028-1.165-.063-1.181-.091-1.816-.142-3.641-.142-5.474,0-20.4,6.752-41.889,19.013-60.508,11.589-17.599,27.305-31.214,43.12-37.357,3.521-1.367,7.117-2.634,10.689-3.766.263-.083.442-.327.442-.603V14.633c0-.35-.284-.633-.633-.633H13.833c-.35,0-.634.283-.634.633v192.64c0,.273.174.515.432.601,21.418,7.148,39.826,20.596,53.235,38.893,6.064,8.275,10.858,17.232,14.32,26.661l.034.093c.041.112.08.224.12.335l.145.404c2.762,7.72,4.636,15.75,5.579,23.978.002.016.003.033.005.049.471,4.126.712,8.302.712,12.513,0,1.393-.027,2.783-.079,4.168-.18.215-.201.529-.034.768-.952,21.413-8.093,41.752-20.803,59.097-13.408,18.296-31.816,31.745-53.235,38.893-.258.086-.432.328-.432.6v183.378c0,.35.284.634.634.634h433.484c.349,0,.633-.284.633-.634v-186.81c0-.269-.17-.509-.425-.597h0ZM420.217,413.27l7.729,10.442.007,9.469-23.457-31.692c6.208,5.436,11.625,9.238,15.721,11.78h0ZM423.036,414.949c2.47,1.406,4.176,2.201,4.906,2.523l.003,4.109-4.909-6.632ZM427.954,435.312l.007,9.468-54.799-74.034,4.323-5.832c1.654,3.95,8.218,18.177,22.054,31.954l-.026.019,28.441,38.425ZM372.373,371.809l55.589,75.102.006,9.469-59.099-79.844,3.504-4.726h0ZM368.081,377.599l59.889,80.912.007,9.468-63.399-85.654,3.503-4.726ZM363.789,383.389l64.189,86.722.006,9.469-67.699-91.465,3.504-4.726ZM359.497,389.179l68.489,92.532.006,9.469-71.999-97.274,3.504-4.727ZM427.994,493.311l.006,9.468-76.3-103.083,3.504-4.726,72.79,98.341ZM350.912,400.759l77.09,104.151.006,9.468-80.6-108.892,3.504-4.727ZM346.62,406.549l81.39,109.961.006,9.469-84.9-114.704,3.504-4.726ZM342.327,412.339l85.69,115.771.007,9.468-89.201-120.512,3.504-4.727h0ZM338.035,418.13l89.99,121.58.007,9.468-93.501-126.322,3.504-4.726ZM333.743,423.919l94.29,127.389.007,9.469-97.801-132.132,3.503-4.726h.001ZM329.45,429.709l98.591,133.2.006,9.468-102.101-137.941,3.504-4.727ZM325.158,435.5l102.891,139.008.002,3.165c-1.094-.391-2.147-.786-3.074-1.165-.923-.378-2.155-.912-3.643-1.568l.021-.016-99.701-134.698,3.504-4.726ZM320.866,441.29l98.17,132.63c-.844-.375-1.743-.777-2.692-1.201-2.288-1.022-4.894-2.186-7.752-3.449l-91.23-123.254,3.504-4.727h0ZM316.573,447.08l89.681,121.161c-3.185-1.398-6.639-2.895-10.289-4.441l-82.896-111.994,3.504-4.726ZM312.281,452.869l81.394,109.966c-3.231-1.356-6.597-2.74-10.05-4.119l-74.847-101.12,3.503-4.727ZM307.989,458.66l73.404,99.17c-3.204-1.264-6.472-2.517-9.767-3.735l-67.141-90.709,3.504-4.726ZM303.696,464.45l65.767,88.853c-3.139-1.141-6.296-2.245-9.436-3.289l-59.834-80.837,3.503-4.727h0ZM299.404,470.24l58.542,79.091c-3.049-.99-6.075-1.919-9.049-2.765l-52.997-71.6,3.504-4.726ZM295.112,476.03l51.798,69.981c-2.928-.803-5.799-1.522-8.582-2.135l-46.72-63.12,3.504-4.727h0ZM290.82,481.82l45.637,61.656c-.792-.163-1.577-.318-2.353-.462-1.912-.357-3.809-.668-5.687-.94l-41.101-55.528,3.504-4.726h0ZM286.528,487.61l40.132,54.219c-2.579-.342-5.117-.609-7.604-.813l-36.032-48.68,3.504-4.726ZM282.235,493.4l35.151,47.489c-2.479-.177-4.904-.291-7.263-.352l-31.392-42.411,3.504-4.726ZM277.943,499.19l30.579,41.313c-2.403-.039-4.731-.023-6.976.034l-27.107-36.621,3.504-4.726ZM273.651,504.98l26.353,35.604c-2.349.081-4.597.208-6.731.366l-23.126-31.244,3.504-4.726ZM269.359,510.77l22.424,30.296c-2.324.193-4.499.422-6.508.668l-19.42-26.238,3.504-4.726ZM265.066,516.56l18.768,25.356c-2.14.281-4.063.576-5.746.862l-15.98-22.228,2.958-3.99ZM333.872,544.258c26.857,5.002,64.071,21.627,81.955,29.617,3.819,1.706,6.837,3.054,8.67,3.804,4.525,1.853,11.986,4.077,12.738,4.3v5.763c-6.09-1.338-15.096-4.622-24.22-8.842l-1.388-.642c-27.714-12.825-69.593-32.206-115.451-30.255-31.57,1.342-63.499,16.802-65.941,18.007-2.442-1.204-34.372-16.665-65.941-18.007-45.849-1.95-87.738,17.43-115.452,30.255l-1.388.642c-11.411,5.278-18.857,8.152-24.04,9.274v-6.327c.672-.241,9.373-3.382,15.435-6.243.725-.342,1.77-.855,3.1-1.508,12.273-6.028,49.619-24.37,83.152-29.52,36.873-5.662,65.151,1.656,65.432,1.731l.418.111,33.565-45.858-135.56-185.208c.061-1.512.093-3.029.093-4.551,0-4.189-.237-8.343-.698-12.45L222.138,115.569l.273-.374-7.882-10.769-.835-1.141-2.95-4.03-55.908-76.383h10.648c.018.041.04.081.067.118l64.774,88.496,64.774-88.496c.027-.038.049-.077.067-.118h10.738l-67.301,91.949-.274.374,135.398,184.985c-.203,2.559-.308,5.108-.308,7.641,0,2.102.062,4.194.181,6.273l-136.207,186.091-.273.374,7.08,9.673-.098.075.281.373,4.466,5.931.013-.009,21.05,28.759.256.35.419-.112c.29-.078,29.337-7.663,63.285-1.341ZM210.37,582.747c-.073-.042-.155-.07-.244-.08-13.909-4.496-35.535-10.041-58.781-10.559-33.424-.731-66.637,16.382-66.968,16.555l.024.047H26.448c5.071-1.451,11.915-4.21,21.538-8.661l1.388-.642c27.603-12.774,69.314-32.08,114.865-30.139,30.391,1.292,61.163,15.799,65.143,17.736l-4.21,21.17c-1.851-.783-7.134-2.938-14.803-5.427h0ZM88.639,588.024v.686h-1.475c.432-.204.925-.434,1.475-.686ZM89.906,587.452c1.213-.542,2.628-1.155,4.223-1.816v3.074h-4.223v-1.258ZM95.396,585.118c1.307-.53,2.719-1.083,4.223-1.65v5.243h-4.223v-3.593ZM100.886,582.996c1.343-.494,2.753-.996,4.224-1.497v7.212h-4.224v-5.715ZM106.376,581.072c1.363-.453,2.771-.905,4.224-1.348v8.987h-4.224v-7.639ZM111.867,579.342c1.373-.408,2.783-.808,4.223-1.196v10.564h-4.223v-9.368ZM117.357,577.81c1.382-.361,2.791-.709,4.223-1.04v11.941h-4.223v-10.901ZM122.847,576.481c1.388-.309,2.797-.603,4.223-.878v13.107h-4.223v-12.229ZM128.337,575.367c1.393-.255,2.802-.49,4.223-.704v14.048h-4.223v-13.344ZM133.827,574.48c1.398-.196,2.806-.369,4.223-.519v14.749h-4.223v-14.23ZM139.317,573.834c1.403-.132,2.811-.24,4.226-.319l-.002,15.195h-4.224v-14.876ZM144.81,573.453c1.404-.062,2.811-.095,4.221-.098v15.355h-4.223l.002-15.257ZM150.298,573.361c.34.003.68.006,1.02.013,1.072.024,2.14.061,3.205.106l-.002,15.23h-4.223v-15.349ZM155.79,573.539c1.415.07,2.823.157,4.221.261v14.91h-4.223l.002-15.171ZM161.278,573.9c1.418.116,2.827.247,4.223.395v14.416h-4.223v-14.811ZM166.768,574.433c1.42.16,2.83.333,4.223.52v13.757h-4.223v-14.277ZM172.258,575.13c1.424.201,2.832.416,4.224.643v12.938h-4.224v-13.581ZM177.749,575.982c1.427.242,2.835.498,4.223.762v11.967h-4.223v-12.729ZM183.239,576.989c1.431.281,2.84.572,4.223.872v10.849h-4.223v-11.721ZM188.729,578.14c1.438.321,2.845.65,4.223.985v9.586h-4.223v-10.571ZM194.219,579.437c1.445.36,2.854.725,4.223,1.093v8.181h-4.223v-9.274ZM199.709,580.875c1.456.4,2.866.802,4.223,1.203v6.633h-4.223v-7.836ZM205.199,582.455c1.475.444,2.884.884,4.223,1.315v4.941h-4.223v-6.256ZM210.689,584.182c1.509.495,2.92.975,4.224,1.432v3.096h-4.224v-4.528ZM216.18,586.062c3.036,1.086,5.404,2.011,6.978,2.649h-6.978v-2.649ZM230.235,569.218l3.876,19.493h-7.752l3.876-19.493ZM237.311,588.71c1.578-.639,3.954-1.567,7.001-2.656v2.656h-7.001ZM245.579,585.606c1.303-.457,2.715-.937,4.223-1.431v4.535h-4.223v-3.104ZM251.069,583.763c1.34-.431,2.748-.871,4.223-1.315v6.262h-4.223v-4.947ZM256.559,582.071c1.358-.4,2.767-.802,4.223-1.202v7.841h-4.223v-6.639ZM262.049,580.525c1.37-.369,2.778-.734,4.224-1.094v9.279h-4.224v-8.185ZM267.54,579.119c1.377-.334,2.785-.664,4.223-.984v10.575h-4.223v-9.591ZM273.03,577.857c1.382-.3,2.792-.591,4.223-.873v11.726h-4.223v-10.853ZM278.52,576.74c1.388-.265,2.795-.519,4.223-.761v12.732h-4.223v-11.971ZM284.01,575.769c1.391-.226,2.8-.441,4.223-.642v13.584h-4.223v-12.942ZM289.5,574.95c1.394-.187,2.803-.36,4.223-.519v14.279h-4.223v-13.76ZM294.99,574.292c1.397-.147,2.806-.278,4.224-.394v14.812h-4.224v-14.418ZM300.481,573.799c1.399-.105,2.807-.192,4.223-.262v15.173h-4.223v-14.911ZM305.971,573.479c1.057-.044,2.117-.081,3.181-.104.347-.008.694-.011,1.042-.015v15.351h-4.223v-15.232ZM311.461,573.355c1.408.003,2.817.035,4.223.097v15.259h-4.223v-15.356ZM316.951,573.514c1.412.079,2.82.187,4.223.318v14.878h-4.223v-15.197h0ZM322.441,573.959c1.416.148,2.824.32,4.223.515v14.236h-4.223v-14.751ZM327.931,574.655c1.42.212,2.829.444,4.224.696v13.36h-4.224v-14.056ZM333.421,575.587c1.425.27,2.833.56,4.224.865v12.259h-4.224v-13.124ZM338.912,576.736c1.43.326,2.839.668,4.223,1.023v10.952h-4.223v-11.975ZM344.402,578.088c1.438.38,2.847.772,4.223,1.172v9.451h-4.223v-10.623ZM349.892,579.633c1.448.433,2.858.873,4.223,1.316v7.761h-4.223v-9.077ZM355.382,581.365c1.465.487,2.875.975,4.223,1.458v5.887h-4.223v-7.345ZM360.872,583.281c1.495.546,2.905,1.083,4.223,1.6v3.829h-4.223v-5.429ZM366.362,585.383c1.563.625,2.979,1.215,4.224,1.75v1.577h-4.224v-3.327ZM371.853,587.683c.872.383,1.639.729,2.29,1.028h-2.29v-1.028ZM377.101,588.71c-2.863-1.412-35.884-17.318-67.977-16.602-36.284.809-68.622,13.864-73.828,16.065l-4.209-21.17c3.98-1.936,34.751-16.444,65.143-17.736,45.548-1.943,87.262,17.366,114.865,30.139l1.388.642c8.644,3.998,17.199,7.167,23.326,8.661h-58.708ZM37.113,415.861l93.743,126.65c-1.955.236-3.937.504-5.946.813-.135.02-.271.043-.406.064l-91.424-123.515v-1.979c.642-.282,2.034-.929,4.033-2.033ZM196.341,524.553l-114.74-155.017c.92-1.85,1.559-3.297,1.938-4.2l115.377,155.636-2.574,3.581ZM80.961,370.8l114.562,154.778.175-.13-3.583,4.985-114.164-154.238c1.19-1.991,2.191-3.811,3.009-5.395ZM77.242,377.364l114.096,154.148-3.45,4.8-113.933-153.928c1.216-1.751,2.31-3.433,3.287-5.02h0ZM187.111,537.392l-3.45,4.799-114.01-154.032c1.271-1.594,2.451-3.161,3.536-4.683l113.924,153.916ZM182.885,543.27l-.058.081c-.026.037-.047.075-.065.115-2.135-.351-4.654-.718-7.513-1.052l-110.188-148.869c1.335-1.466,2.591-2.926,3.769-4.367l114.055,154.092ZM173.53,542.221c-2.303-.246-4.804-.468-7.479-.645l-105.861-143.022c1.402-1.349,2.737-2.704,3.999-4.057l109.342,147.724h-.001ZM59.263,399.431l105.137,142.044c-2.287-.131-4.693-.227-7.206-.275l-102.15-138.008c.604-.514,1.214-1.04,1.834-1.586.818-.721,1.609-1.447,2.384-2.175ZM54.075,404.011l101.526,137.165c-2.244-.025-4.568-.011-6.965.05l-98.958-133.695c1.404-1.075,2.872-2.246,4.396-3.52ZM48.669,408.296l98.425,132.975c-2.194.073-4.444.185-6.748.344l-96.26-130.051c1.424-.963,2.956-2.049,4.583-3.268ZM43.031,412.268l95.82,129.456c-2.14.164-4.323.37-6.544.619l-94.082-127.108c1.383-.793,2.998-1.777,4.806-2.967ZM36.576,575.254l-3.599-4.863.006-9.451,8.766,11.843c-.12.059-.242.119-.359.176-1.323.649-2.362,1.16-3.083,1.5-.557.264-1.138.529-1.733.795ZM42.905,572.216l-9.921-13.404.006-9.451,15.067,20.356c-1.956.937-3.681,1.778-5.152,2.499ZM49.222,569.161l-16.23-21.926.006-9.452,21.421,28.941c-1.858.858-3.596,1.675-5.198,2.438h0ZM55.596,566.183l-22.595-30.527.006-9.451,27.84,37.612c-1.833.812-3.585,1.603-5.251,2.366ZM62.035,563.293l-29.026-39.215.006-9.451,34.329,46.378c-1.828.773-3.601,1.538-5.309,2.288ZM68.545,560.5l-35.528-48.001.006-9.451,40.894,55.249c-1.834.736-3.627,1.472-5.372,2.203ZM75.133,557.811l-42.109-56.89.006-9.451,47.543,64.233c-1.846.698-3.663,1.402-5.442,2.108h0ZM81.807,555.24l-48.775-65.897.006-9.452,54.287,73.345c-1.865.657-3.705,1.327-5.519,2.004h0ZM88.577,552.797l-55.537-75.033.006-9.451,61.138,82.599c-1.887.613-3.757,1.242-5.607,1.885ZM95.457,550.503l-62.409-84.316.006-9.452,68.11,92.019c-1.914.561-3.818,1.146-5.708,1.749ZM102.462,548.377l-69.406-93.769.006-9.452,75.226,101.634c-1.947.501-3.891,1.031-5.827,1.587h0ZM109.615,546.453l-76.551-103.424.006-9.451,82.515,111.48c-1.989.43-3.98.897-5.97,1.395ZM116.947,544.769l-83.875-113.318.006-9.45,90.017,121.615c-2.04.34-4.091.725-6.148,1.153ZM32.975,572.518l2.411,3.259c-.797.345-1.607.687-2.414,1.021l.003-4.28ZM85.074,281.383c2.112-1.253,4.261-3.928,5.987-7.49l-.068-.033c1.895-1.372,3.785-3.842,5.356-7.083l-.068-.033c1.895-1.372,3.785-3.841,5.356-7.083l-.068-.033c1.895-1.372,3.785-3.841,5.356-7.083l-.068-.033c1.895-1.372,3.785-3.841,5.356-7.083l-.068-.033c1.895-1.371,3.785-3.841,5.356-7.083l-.068-.033c1.895-1.371,3.786-3.841,5.356-7.083l-.067-.032c1.895-1.372,3.785-3.842,5.356-7.083l-.068-.033c1.895-1.372,3.785-3.842,5.356-7.083l-.068-.033c1.895-1.372,3.785-3.841,5.356-7.083l-.068-.033c1.895-1.371,3.785-3.841,5.356-7.083l-.068-.032c1.895-1.372,3.785-3.842,5.356-7.083l-.068-.033c1.895-1.372,3.785-3.842,5.356-7.083l-.068-.033c1.895-1.372,3.785-3.842,5.356-7.083l-.068-.033c1.895-1.371,3.785-3.841,5.356-7.083l-.068-.033c1.895-1.371,3.786-3.841,5.356-7.082l-.068-.033c1.895-1.372,3.786-3.842,5.357-7.083l-.068-.033c1.894-1.372,3.784-3.842,5.355-7.083l-.068-.033c1.895-1.371,3.786-3.841,5.356-7.083l-.067-.033c1.895-1.371,3.785-3.841,5.356-7.083l-.069-.032c1.895-1.372,3.785-3.842,5.356-7.083l-.068-.033c1.895-1.372,3.785-3.842,5.356-7.083l-.068-.033c1.895-1.372,3.785-3.842,5.356-7.083l-.068-.033c1.895-1.372,3.785-3.841,5.356-7.083l-.071-.034c.889-.643,1.781-1.532,2.641-2.634l5.586,7.632-132.712,181.316c-.664-5.131-1.684-10.182-3.055-15.127h-.002ZM210.306,100.801l1.44,1.967c-.703-.132-1.435-.242-2.266-.168.266-.651.542-1.252.826-1.799ZM209.281,103.899c.909-.144,1.668.004,2.547.175.32.062.654.122,1,.172l1.648,2.253c-1.557,2.086-3.183,3.362-4.608,3.607-1.202.207-2.117.029-3.086-.159-.804-.157-1.632-.316-2.59-.23,1.464-3.6,3.133-5.508,5.089-5.817h0ZM203.994,111.015c.91-.143,1.668.004,2.545.175.991.193,2.111.411,3.544.164.223-.039.449-.096.677-.172-1.931,3.436-4.225,5.704-6.18,6.04-1.201.206-2.117.029-3.087-.16-.804-.156-1.632-.316-2.59-.23,1.464-3.6,3.134-5.508,5.09-5.817h.001ZM198.706,118.131c.911-.144,1.668.004,2.545.174.991.193,2.113.411,3.545.164.225-.038.451-.102.679-.178-1.931,3.439-4.227,5.71-6.183,6.046-1.2.206-2.118.029-3.087-.159-.804-.157-1.632-.317-2.59-.23,1.464-3.6,3.134-5.508,5.09-5.817h0ZM193.417,125.247c.911-.144,1.669.003,2.546.174.991.192,2.113.412,3.545.164.224-.039.452-.102.68-.178-1.932,3.439-4.228,5.71-6.184,6.046-1.201.206-2.118.029-3.087-.159-.803-.156-1.631-.317-2.589-.231,1.463-3.599,3.133-5.507,5.089-5.816ZM188.13,132.362c.909-.144,1.667.004,2.546.174.99.193,2.112.412,3.544.165.224-.039.452-.103.68-.179-1.932,3.44-4.228,5.71-6.183,6.047-1.202.207-2.118.029-3.087-.159-.804-.156-1.632-.317-2.59-.231,1.464-3.599,3.133-5.507,5.09-5.816h0ZM182.842,139.478c.91-.144,1.667.004,2.545.174.991.193,2.112.411,3.545.164.224-.038.451-.103.68-.178-1.932,3.439-4.228,5.71-6.183,6.047-1.202.206-2.118.028-3.087-.16-.804-.156-1.632-.316-2.59-.23,1.464-3.6,3.133-5.508,5.09-5.817ZM177.554,146.594c.911-.144,1.668.004,2.546.174.99.193,2.113.41,3.544.164.225-.038.452-.102.68-.178-1.932,3.439-4.228,5.71-6.184,6.046-1.201.207-2.118.029-3.087-.159-.803-.156-1.632-.317-2.589-.23,1.463-3.6,3.133-5.508,5.089-5.817h.001ZM172.266,153.709c.91-.143,1.668.004,2.545.175.991.192,2.112.411,3.545.164.224-.039.451-.103.679-.178-1.931,3.439-4.227,5.709-6.183,6.046-1.202.206-2.117.028-3.087-.16-.803-.156-1.631-.316-2.59-.23,1.464-3.6,3.133-5.508,5.09-5.817h.001ZM166.978,160.825c.909-.144,1.667.004,2.546.174.991.193,2.113.411,3.544.165.225-.039.452-.103.68-.178-1.932,3.439-4.228,5.709-6.183,6.045-1.202.207-2.118.03-3.087-.159-.803-.156-1.631-.316-2.59-.23,1.464-3.599,3.133-5.507,5.09-5.817ZM161.689,167.941c.909-.144,1.668.003,2.547.174.99.193,2.111.411,3.544.165.224-.039.452-.103.68-.179-1.932,3.44-4.227,5.71-6.183,6.047-1.202.207-2.118.028-3.087-.16-.804-.156-1.632-.316-2.59-.23,1.464-3.6,3.133-5.508,5.089-5.817ZM156.402,175.056c.911-.143,1.668.004,2.546.175.99.192,2.113.41,3.544.164.225-.039.452-.103.68-.178-1.932,3.439-4.228,5.709-6.183,6.046-1.202.206-2.118.029-3.088-.16-.803-.156-1.632-.316-2.589-.23,1.463-3.599,3.133-5.508,5.09-5.817h0ZM151.114,182.172c.911-.144,1.667.004,2.545.175.991.193,2.113.411,3.545.164.225-.039.451-.103.679-.178-1.931,3.439-4.227,5.709-6.183,6.046-1.201.206-2.118.029-3.087-.16-.803-.156-1.631-.316-2.59-.23,1.464-3.599,3.134-5.507,5.09-5.817h0ZM145.826,189.288c.909-.144,1.668.004,2.546.175.99.192,2.112.411,3.544.164.225-.039.452-.103.68-.178-1.932,3.439-4.228,5.709-6.183,6.045-1.203.207-2.118.03-3.087-.159-.803-.156-1.631-.316-2.59-.23,1.464-3.6,3.134-5.507,5.09-5.817ZM140.537,196.404c.91-.144,1.668.003,2.547.174.99.192,2.111.411,3.544.164.224-.039.452-.102.68-.178-1.932,3.439-4.227,5.71-6.183,6.046-1.202.207-2.118.029-3.087-.159-.804-.156-1.632-.316-2.59-.231,1.464-3.599,3.133-5.507,5.089-5.816ZM135.25,203.519c.911-.143,1.668.004,2.546.175.991.193,2.112.411,3.544.164.225-.039.452-.103.68-.178-1.931,3.439-4.227,5.709-6.183,6.046-1.201.206-2.118.029-3.087-.16-.804-.156-1.632-.315-2.59-.23,1.464-3.599,3.133-5.508,5.09-5.817ZM129.962,210.635c.911-.144,1.668.004,2.546.175.99.193,2.112.411,3.544.164.225-.039.451-.103.68-.178-1.932,3.439-4.228,5.709-6.184,6.046-1.201.206-2.117.028-3.087-.159-.803-.157-1.631-.317-2.589-.231,1.463-3.599,3.133-5.508,5.09-5.817ZM124.674,217.751c.909-.143,1.668.004,2.546.174.99.193,2.113.412,3.544.164.225-.039.452-.102.68-.178-1.932,3.439-4.228,5.71-6.184,6.047-1.202.206-2.117.028-3.086-.16-.803-.156-1.631-.316-2.59-.23,1.464-3.6,3.133-5.508,5.089-5.817h.001ZM119.386,224.867c.909-.144,1.667.003,2.546.174.99.192,2.112.411,3.544.164.225-.039.452-.103.68-.178-1.931,3.439-4.227,5.71-6.183,6.046-1.201.207-2.118.029-3.087-.159-.804-.156-1.632-.316-2.59-.23,1.464-3.599,3.133-5.508,5.09-5.817ZM114.098,231.983c.911-.144,1.668.003,2.546.174.991.193,2.113.411,3.544.164.225-.038.452-.103.68-.178-1.932,3.439-4.227,5.709-6.183,6.046-1.201.206-2.118.029-3.087-.16-.804-.156-1.633-.316-2.59-.23,1.464-3.6,3.133-5.508,5.09-5.817h0ZM108.81,239.098c.91-.143,1.668.004,2.546.175.99.193,2.112.411,3.544.164.225-.039.452-.103.68-.178-1.932,3.439-4.228,5.709-6.184,6.046-1.2.206-2.117.029-3.087-.159-.803-.157-1.63-.317-2.589-.231,1.463-3.599,3.133-5.508,5.09-5.817ZM103.522,246.214c.909-.143,1.668.004,2.546.174.99.193,2.112.411,3.544.164.225-.038.452-.102.68-.178-1.932,3.439-4.228,5.71-6.183,6.046-1.202.207-2.118.029-3.087-.159-.803-.156-1.632-.316-2.59-.23,1.464-3.6,3.133-5.508,5.09-5.817h0ZM98.234,253.33c.909-.144,1.668.003,2.546.174.99.192,2.111.411,3.544.164.225-.039.452-.103.68-.178-1.931,3.439-4.227,5.71-6.183,6.046-1.201.207-2.118.029-3.087-.159-.804-.156-1.632-.316-2.59-.23,1.464-3.6,3.133-5.508,5.089-5.817ZM92.946,260.445c.911-.144,1.668.004,2.546.174.99.193,2.113.412,3.545.165.225-.039.451-.103.68-.178-1.932,3.439-4.228,5.709-6.183,6.045-1.201.207-2.118.03-3.087-.159-.804-.156-1.632-.316-2.59-.23,1.464-3.599,3.134-5.508,5.09-5.817ZM87.658,267.561c.91-.143,1.668.004,2.546.174.991.193,2.112.411,3.545.165.225-.039.452-.103.68-.179-1.932,3.44-4.227,5.71-6.183,6.047-1.204.207-2.118.028-3.087-.16-.803-.156-1.63-.316-2.588-.23,1.466-3.601,3.134-5.508,5.088-5.817ZM84.916,274.851c.675.131,1.41.274,2.263.274.399,0,.824-.031,1.281-.11.224-.038.451-.102.679-.177-1.369,2.441-2.914,4.288-4.424,5.282-.536-1.848-1.117-3.681-1.751-5.497.663-.02,1.272.096,1.952.228h0ZM211.592,514.506c.184.016.365.027.541.027.186,0,.367-.009.546-.023l-.674.948c-.14-.305-.278-.621-.413-.952ZM216.84,508.904c-.696-.812-1.403-1.486-2.107-1.996l.063-.031c-1.57-3.241-3.46-5.711-5.355-7.083l.068-.033c-1.571-3.241-3.461-5.711-5.356-7.083l.068-.033c-1.571-3.241-3.461-5.71-5.356-7.082l.068-.033c-1.571-3.241-3.461-5.711-5.356-7.082l.068-.033c-1.571-3.242-3.461-5.711-5.356-7.083l.068-.033c-1.571-3.242-3.461-5.712-5.356-7.083l.068-.033c-1.571-3.241-3.461-5.711-5.356-7.083l.068-.033c-1.571-3.241-3.461-5.71-5.356-7.082l.068-.033c-1.57-3.241-3.461-5.711-5.356-7.083l.068-.033c-1.571-3.241-3.461-5.711-5.356-7.083l.068-.033c-1.571-3.241-3.461-5.71-5.356-7.082l.068-.033c-1.571-3.241-3.461-5.711-5.356-7.083l.068-.033c-1.571-3.241-3.461-5.711-5.356-7.083l.068-.032c-1.571-3.242-3.461-5.712-5.356-7.083l.068-.033c-1.57-3.242-3.461-5.711-5.356-7.083l.068-.033c-1.571-3.241-3.461-5.711-5.356-7.082l.068-.033c-1.57-3.242-3.461-5.712-5.355-7.084l.068-.033c-1.571-3.241-3.461-5.711-5.356-7.082l.068-.033c-1.571-3.241-3.461-5.711-5.356-7.083l.067-.033c-1.57-3.241-3.461-5.711-5.355-7.083l.067-.033c-1.57-3.241-3.46-5.711-5.355-7.082l.068-.033c-1.571-3.241-3.461-5.711-5.356-7.083l.068-.033c-1.571-3.241-3.461-5.711-5.356-7.083l.068-.032c-1.979-4.084-4.485-6.956-6.857-7.926,1.332-5.858,2.187-11.847,2.543-17.928l134.09,183.197-6.108,8.345h-.001ZM91.251,342.271c-.228-.075-.455-.14-.679-.178-1.432-.247-2.554-.028-3.544.164-.878.171-1.637.318-2.546.174-.014-.002-.029-.006-.043-.009.584-1.945,1.115-3.906,1.59-5.884,1.72.787,3.605,2.856,5.223,5.733h0ZM87.27,343.5c.968-.188,1.883-.367,3.087-.159,1.956.336,4.251,2.607,6.183,6.046-.228-.076-.455-.14-.679-.179-1.433-.245-2.554-.028-3.545.165-.878.171-1.634.318-2.546.174-1.956-.309-3.626-2.217-5.09-5.816.959.086,1.787-.075,2.59-.231ZM92.557,350.616c.969-.189,1.884-.366,3.088-.159,1.955.336,4.251,2.606,6.183,6.045-.228-.075-.455-.139-.68-.178-1.432-.246-2.554-.028-3.544.165-.877.171-1.635.319-2.546.174-1.957-.31-3.626-2.218-5.09-5.817.957.087,1.786-.074,2.589-.23ZM97.846,357.732c.969-.188,1.885-.367,3.087-.16,1.955.337,4.251,2.607,6.183,6.046-.229-.076-.456-.139-.68-.178-1.433-.246-2.554-.028-3.544.164-.879.171-1.637.318-2.547.175-1.956-.31-3.625-2.218-5.089-5.817.958.086,1.786-.074,2.59-.23ZM103.134,364.847c.969-.188,1.885-.366,3.087-.159,1.955.336,4.251,2.606,6.182,6.045-.228-.075-.454-.139-.679-.178-1.432-.246-2.554-.028-3.544.165-.878.171-1.637.318-2.546.174-1.957-.309-3.626-2.217-5.09-5.816.958.086,1.786-.075,2.59-.231ZM108.422,371.963c.968-.188,1.883-.367,3.086-.159,1.956.336,4.252,2.607,6.183,6.046-.228-.076-.455-.14-.679-.179-1.433-.245-2.554-.028-3.545.165-.877.171-1.634.318-2.546.174-1.956-.309-3.625-2.217-5.089-5.816.958.086,1.786-.075,2.59-.231ZM113.709,379.079c.969-.189,1.885-.367,3.088-.159,1.955.336,4.251,2.606,6.183,6.045-.229-.075-.455-.139-.68-.178-1.433-.246-2.554-.028-3.545.164-.877.171-1.634.319-2.545.175-1.957-.31-3.626-2.218-5.09-5.817.957.086,1.786-.074,2.589-.23ZM118.997,386.195c.97-.188,1.885-.366,3.088-.16,1.955.337,4.251,2.607,6.182,6.046-.228-.076-.455-.139-.68-.178-1.432-.246-2.553-.028-3.543.164-.879.171-1.637.319-2.547.175-1.956-.31-3.625-2.218-5.089-5.817.957.087,1.786-.074,2.589-.23ZM124.286,393.31c.969-.188,1.884-.366,3.087-.159,1.955.336,4.251,2.607,6.183,6.046-.228-.076-.456-.14-.68-.178-1.432-.246-2.554-.028-3.545.164-.878.171-1.636.318-2.546.174-1.956-.309-3.625-2.217-5.089-5.816.958.086,1.786-.075,2.59-.231ZM129.573,400.426c.969-.189,1.885-.367,3.087-.159,1.956.336,4.251,2.606,6.183,6.045-.228-.075-.455-.139-.679-.178-1.431-.245-2.555-.028-3.545.165-.878.17-1.636.318-2.546.174-1.956-.31-3.625-2.218-5.089-5.817.958.087,1.786-.074,2.589-.23ZM134.861,407.542c.969-.189,1.885-.367,3.088-.159,1.955.336,4.251,2.606,6.182,6.045-.228-.075-.454-.139-.679-.178-1.433-.246-2.554-.028-3.545.165-.877.17-1.634.318-2.545.174-1.957-.31-3.626-2.217-5.09-5.817.958.086,1.785-.074,2.589-.23ZM140.149,414.658c.97-.189,1.885-.367,3.088-.16,1.955.336,4.251,2.607,6.183,6.046-.228-.076-.456-.139-.68-.178-1.433-.246-2.554-.028-3.544.164-.879.171-1.637.318-2.546.174-1.957-.309-3.626-2.217-5.09-5.816.958.086,1.786-.074,2.59-.23h0ZM145.437,421.773c.969-.188,1.885-.366,3.087-.159,1.956.337,4.252,2.607,6.184,6.046-.228-.076-.456-.14-.68-.178-1.432-.246-2.555-.029-3.545.164-.878.171-1.636.318-2.546.174-1.955-.309-3.625-2.217-5.089-5.816.959.086,1.787-.075,2.589-.231ZM150.725,428.889c.969-.189,1.884-.367,3.087-.159,1.956.336,4.251,2.606,6.183,6.045-.228-.075-.455-.139-.679-.178-1.433-.246-2.555-.028-3.545.165-.878.171-1.634.318-2.546.174-1.956-.31-3.625-2.218-5.09-5.817.959.087,1.787-.074,2.59-.23ZM156.013,436.005c.97-.189,1.886-.367,3.088-.16,1.955.337,4.251,2.607,6.182,6.046-.228-.076-.455-.14-.679-.178-1.433-.246-2.554-.028-3.545.164-.877.171-1.635.319-2.545.174-1.957-.309-3.626-2.217-5.09-5.816.957.086,1.786-.075,2.589-.23ZM161.301,443.121c.97-.189,1.885-.367,3.087-.16,1.956.336,4.252,2.607,6.183,6.046-.228-.076-.455-.14-.68-.179-1.432-.245-2.554-.027-3.543.165-.879.171-1.638.318-2.547.174-1.956-.309-3.625-2.217-5.089-5.816.957.085,1.785-.075,2.589-.23ZM166.59,450.236c.969-.188,1.884-.367,3.086-.16,1.956.337,4.251,2.608,6.183,6.046-.228-.075-.455-.139-.679-.178-1.433-.246-2.554-.028-3.544.165-.879.17-1.637.317-2.547.174-1.956-.31-3.625-2.217-5.089-5.816.959.086,1.786-.075,2.59-.231ZM171.877,457.352c.97-.188,1.885-.366,3.087-.159,1.955.336,4.251,2.606,6.183,6.045-.228-.075-.455-.139-.68-.178-1.432-.246-2.554-.028-3.544.165-.878.171-1.635.318-2.546.174-1.956-.31-3.625-2.218-5.09-5.817.959.086,1.787-.073,2.59-.23ZM177.165,464.468c.969-.188,1.885-.367,3.087-.16,1.956.337,4.252,2.607,6.183,6.046-.228-.075-.455-.14-.679-.178-1.432-.246-2.555-.028-3.545.164-.877.172-1.635.318-2.546.175-1.956-.31-3.625-2.218-5.089-5.817.957.085,1.786-.074,2.589-.23ZM182.453,471.583c.97-.188,1.885-.367,3.087-.159,1.956.336,4.252,2.607,6.183,6.046-.228-.076-.455-.14-.679-.179-1.433-.245-2.555-.028-3.545.165-.877.171-1.634.318-2.545.174-1.956-.309-3.626-2.217-5.09-5.816.957.086,1.786-.075,2.59-.231h0ZM187.741,478.699c.969-.189,1.885-.366,3.087-.159,1.956.336,4.252,2.606,6.183,6.045-.228-.075-.455-.139-.68-.178-1.431-.245-2.553-.028-3.545.165-.877.17-1.634.318-2.545.174-1.956-.31-3.625-2.218-5.089-5.816.957.086,1.786-.075,2.589-.231ZM193.028,485.815c.97-.189,1.887-.367,3.088-.16,1.955.337,4.251,2.607,6.183,6.046-.228-.075-.455-.139-.68-.178-1.432-.246-2.553-.028-3.544.164-.878.171-1.635.319-2.546.175-1.957-.31-3.626-2.217-5.09-5.817.959.086,1.786-.074,2.589-.23ZM198.317,492.93c.97-.188,1.885-.366,3.087-.159,1.956.336,4.251,2.607,6.183,6.046-.228-.075-.455-.14-.679-.178-1.433-.246-2.555-.029-3.545.164-.878.171-1.635.319-2.546.174-1.956-.309-3.625-2.217-5.089-5.816.957.086,1.785-.075,2.589-.231ZM203.605,500.046c.969-.189,1.884-.366,3.087-.159,1.955.336,4.25,2.605,6.18,6.041-.227-.075-.453-.135-.677-.173-1.433-.247-2.554-.029-3.544.164-.878.171-1.634.318-2.546.174-1.956-.309-3.625-2.217-5.09-5.816.958.086,1.786-.074,2.59-.231ZM208.893,507.162c.969-.189,1.885-.367,3.087-.159,1.227.21,2.638,1.224,4.007,2.852l-2.294,3.227c-.776.148-1.476.256-2.3.127-1.956-.31-3.625-2.218-5.089-5.817.957.086,1.786-.074,2.589-.23ZM278.289,24.792c-.35,0-.634.283-.634.633v3.415l-2.763,3.877c-.045-.01-.091-.017-.14-.017h-89.391l-2.727-3.792v-3.483c0-.35-.284-.633-.634-.633s-.633.283-.633.633v1.721l-3.075-4.275h103.618l-2.987,4.191v-1.637c0-.35-.284-.633-.633-.633h-.001ZM274.001,33.967l-33.18,46.55c-2.927-1.484-5.54-2.73-9.478-2.782-.109-.001-.217-.002-.326-.002-3.846,0-7.653.906-11.328,2.695l-33.417-46.461h87.729ZM176.738,22.872c.01.016.017.032.028.048l4.642,6.455c.04.105.107.196.192.267l37.375,51.964c.183.254.524.336.802.194,3.744-1.909,7.628-2.847,11.549-2.798,3.82.051,6.368,1.346,9.318,2.846l.089.046c.092.046.19.069.287.069.2,0,.394-.094.517-.266l37.103-52.054c.126-.084.218-.212.258-.362l4.488-6.296c.025-.035.046-.073.064-.111h10.166l-63.29,86.469-63.291-86.47h9.703ZM373.898,298.268L239.899,115.195l5.666-7.741c1.363,2.376,2.876,4.182,4.396,5.278l-.065.031c1.571,3.242,3.461,5.711,5.356,7.083l-.067.033c1.57,3.242,3.461,5.711,5.355,7.083l-.068.033c1.571,3.241,3.461,5.711,5.356,7.083l-.068.033c1.571,3.241,3.461,5.711,5.356,7.083l-.068.033c1.57,3.241,3.461,5.711,5.356,7.083l-.068.033c1.571,3.241,3.461,5.711,5.356,7.082l-.068.033c1.571,3.242,3.461,5.711,5.356,7.083l-.068.033c1.57,3.241,3.461,5.711,5.356,7.083l-.068.033c1.571,3.241,3.461,5.711,5.356,7.083l-.068.033c1.571,3.241,3.461,5.711,5.356,7.083l-.067.032c1.57,3.242,3.46,5.711,5.355,7.083l-.068.033c1.571,3.241,3.461,5.711,5.356,7.083l-.068.033c1.571,3.241,3.461,5.711,5.356,7.083l-.068.033c1.57,3.241,3.461,5.711,5.356,7.083l-.068.032c1.571,3.242,3.461,5.712,5.356,7.083l-.068.033c1.571,3.241,3.461,5.712,5.356,7.083l-.068.033c1.57,3.242,3.461,5.711,5.356,7.083l-.068.033c1.571,3.241,3.461,5.711,5.356,7.083l-.068.033c1.571,3.242,3.461,5.711,5.356,7.083l-.068.033c1.571,3.241,3.461,5.711,5.357,7.083l-.068.033c1.57,3.241,3.46,5.711,5.355,7.083l-.067.033c1.57,3.241,3.461,5.711,5.356,7.082l-.068.033c1.57,3.242,3.46,5.711,5.355,7.083l-.068.033c1.447,2.986,3.204,5.374,4.989,6.8-1.239,5.005-2.117,10.037-2.611,15.043v-.002ZM373.442,277.37c.228.075.455.139.679.178.458.079.883.11,1.283.11.852,0,1.588-.142,2.262-.273.164-.032.325-.062.485-.091-.465,1.518-.897,3.04-1.295,4.565-1.186-1.066-2.357-2.606-3.414-4.489ZM378.572,275.949c-.395.05-.776.121-1.147.193-.97.188-1.886.365-3.088.158-1.956-.337-4.252-2.607-6.184-6.047.228.076.456.14.68.179,1.431.246,2.554.028,3.544-.165.878-.17,1.637-.317,2.547-.174,1.596.253,2.991,1.566,4.257,4.006-.208.615-.411,1.233-.608,1.85h-.001ZM372.136,269.025c-.971.188-1.887.365-3.088.159-1.955-.337-4.251-2.607-6.183-6.046.228.075.455.139.68.178,1.431.247,2.553.028,3.544-.164.878-.171,1.635-.317,2.546-.174,1.957.309,3.626,2.217,5.09,5.816-.959-.086-1.786.075-2.589.231ZM366.847,261.909c-.969.188-1.885.366-3.087.159-1.956-.336-4.251-2.607-6.183-6.046.228.076.456.14.68.178,1.432.247,2.554.029,3.544-.164.878-.17,1.638-.317,2.546-.174,1.957.309,3.626,2.217,5.09,5.816-.958-.085-1.786.075-2.59.231ZM361.559,254.794c-.968.188-1.884.366-3.086.159-1.956-.337-4.252-2.608-6.184-6.047.228.076.456.14.68.178,1.432.247,2.554.029,3.544-.164.879-.17,1.637-.318,2.547-.174,1.956.309,3.625,2.218,5.089,5.817-.957-.086-1.786.074-2.59.23h0ZM356.271,247.678c-.969.188-1.884.366-3.087.159-1.955-.337-4.251-2.607-6.183-6.046.228.075.455.139.68.178,1.43.246,2.553.029,3.544-.164.878-.171,1.636-.318,2.546-.175,1.956.309,3.625,2.218,5.09,5.817-.959-.086-1.786.074-2.59.231ZM350.984,240.562c-.971.188-1.887.366-3.088.159-1.955-.337-4.251-2.607-6.183-6.046.228.076.456.14.68.179,1.431.246,2.554.028,3.544-.165.878-.17,1.636-.317,2.546-.174,1.957.309,3.626,2.217,5.09,5.817-.958-.086-1.786.074-2.589.23ZM345.695,233.446c-.969.189-1.884.367-3.087.16-1.956-.337-4.251-2.607-6.183-6.046.228.076.456.14.68.178,1.433.246,2.554.028,3.544-.164.878-.171,1.636-.318,2.546-.174,1.957.309,3.626,2.217,5.09,5.816-.957-.085-1.786.075-2.59.23ZM340.407,226.33c-.969.189-1.884.367-3.086.16-1.956-.337-4.252-2.607-6.184-6.046.228.075.455.139.68.178,1.432.246,2.554.028,3.545-.164.878-.171,1.637-.318,2.546-.175,1.956.309,3.625,2.217,5.089,5.817-.957-.086-1.786.074-2.59.23ZM335.119,219.215c-.969.188-1.884.366-3.087.159-1.955-.337-4.251-2.607-6.183-6.046.228.075.456.14.68.178,1.431.247,2.554.029,3.544-.164.878-.17,1.636-.317,2.546-.174,1.956.309,3.626,2.217,5.09,5.817-.959-.086-1.786.073-2.59.23ZM329.832,212.099c-.97.188-1.887.366-3.087.159-1.956-.336-4.252-2.607-6.184-6.046.228.076.456.14.68.178,1.432.247,2.554.029,3.545-.164.877-.17,1.635-.317,2.546-.174,1.956.309,3.625,2.217,5.089,5.816-.958-.086-1.786.075-2.589.231ZM324.543,204.983c-.969.189-1.884.367-3.087.16-1.955-.337-4.251-2.607-6.183-6.046.228.075.456.139.68.178,1.433.246,2.555.027,3.545-.165.878-.17,1.635-.317,2.545-.174,1.957.31,3.626,2.218,5.09,5.817-.957-.086-1.786.074-2.59.23ZM319.256,197.868c-.969.188-1.885.366-3.087.159-1.956-.336-4.252-2.607-6.184-6.046.228.076.456.14.68.178,1.432.247,2.554.028,3.544-.164.878-.171,1.637-.318,2.546-.174,1.957.309,3.626,2.217,5.09,5.816-.958-.086-1.786.074-2.589.231ZM313.967,190.752c-.968.188-1.884.366-3.086.159-1.956-.337-4.252-2.607-6.184-6.046.228.075.456.139.68.178,1.431.247,2.553.029,3.544-.164.878-.17,1.637-.317,2.546-.174,1.956.309,3.625,2.217,5.09,5.817-.958-.087-1.786.074-2.59.23h0ZM308.68,183.636c-.97.188-1.887.366-3.087.159-1.956-.336-4.252-2.607-6.183-6.046.228.075.455.14.679.178,1.431.247,2.554.028,3.545-.164.878-.17,1.635-.317,2.545-.174,1.957.309,3.626,2.218,5.09,5.817-.958-.086-1.786.074-2.589.23ZM303.392,176.52c-.97.188-1.886.367-3.088.16-1.955-.337-4.251-2.607-6.183-6.046.228.075.455.139.68.178,1.431.247,2.554.028,3.544-.164.878-.17,1.636-.317,2.546-.175,1.957.309,3.626,2.218,5.09,5.817-.958-.085-1.786.074-2.59.231h.001ZM298.104,169.405c-.969.188-1.885.366-3.087.159-1.956-.336-4.252-2.606-6.184-6.046.228.076.456.14.681.178,1.432.247,2.553.028,3.543-.164.879-.171,1.637-.318,2.547-.174,1.956.309,3.625,2.217,5.089,5.816-.957-.085-1.786.074-2.589.23h0ZM292.815,162.289c-.969.188-1.884.366-3.086.159-1.956-.336-4.252-2.607-6.184-6.045.229.075.456.139.68.178,1.431.247,2.554.028,3.544-.164.878-.171,1.637-.318,2.546-.175,1.956.309,3.626,2.217,5.09,5.817-.959-.086-1.786.074-2.59.23h0ZM287.528,155.173c-.97.188-1.887.366-3.087.16-1.956-.337-4.252-2.607-6.183-6.046.228.075.455.139.679.178,1.432.246,2.553.028,3.545-.164.877-.171,1.635-.318,2.545-.175,1.957.31,3.626,2.218,5.09,5.817-.958-.086-1.786.074-2.589.23ZM282.24,148.058c-.97.188-1.886.366-3.087.159-1.956-.337-4.252-2.607-6.184-6.046.228.075.456.139.68.178,1.432.246,2.554.028,3.545-.164.878-.171,1.635-.318,2.546-.175,1.956.309,3.625,2.218,5.089,5.817-.957-.086-1.786.074-2.589.231ZM276.952,140.942c-.969.188-1.885.366-3.087.159-1.956-.337-4.252-2.607-6.184-6.046.229.076.456.139.681.178,1.432.247,2.554.028,3.544-.164.878-.171,1.636-.318,2.546-.174,1.956.309,3.625,2.217,5.089,5.816-.957-.085-1.786.074-2.589.23h0ZM271.664,133.826c-.969.189-1.884.367-3.087.159-1.956-.336-4.252-2.606-6.183-6.045.228.075.455.139.68.178,1.43.246,2.553.028,3.544-.165.878-.17,1.636-.317,2.546-.174,1.956.309,3.625,2.217,5.089,5.817-.958-.086-1.786.074-2.589.23ZM266.376,126.71c-.97.189-1.886.366-3.087.16-1.956-.337-4.252-2.608-6.183-6.046.228.075.455.139.679.178,1.432.246,2.554.028,3.545-.164.878-.17,1.635-.318,2.546-.175,1.956.309,3.625,2.217,5.089,5.817-.958-.086-1.786.074-2.589.23h0ZM261.088,119.595c-.969.188-1.885.366-3.087.159-1.956-.336-4.251-2.606-6.182-6.044.227.074.454.138.678.176,1.431.247,2.554.029,3.545-.164.878-.17,1.636-.318,2.546-.175,1.956.309,3.626,2.218,5.089,5.817-.957-.086-1.786.074-2.589.231ZM255.8,112.479c-.97.188-1.886.366-3.087.159-1.959-.337-4.237-2.576-6.181-6.041.229.075.455.135.678.173,1.432.247,2.554.028,3.544-.164.878-.171,1.637-.318,2.546-.174,1.956.309,3.625,2.217,5.09,5.816-.958-.086-1.786.075-2.59.231ZM250.512,105.363c-.969.189-1.883.367-3.088.159-.123-.021-.25-.054-.379-.091l3.441-4.702c.94.976,1.815,2.447,2.614,4.403-.957-.086-1.786.075-2.588.231ZM245.96,510.492c.214-.079.422-.139.62-.173,1.203-.207,2.118-.028,3.087.16.803.156,1.63.317,2.588.231-.846,2.073-1.778,3.612-2.781,4.582l-3.513-4.8h0ZM252.456,509.41c-.911.144-1.669-.003-2.547-.174-.989-.193-2.112-.41-3.544-.165-.219.038-.444.101-.672.177,1.928-3.426,4.242-5.712,6.175-6.044,1.203-.207,2.119-.03,3.088.159.803.157,1.632.317,2.589.23-1.464,3.6-3.133,5.508-5.089,5.817ZM257.743,502.294c-.91.144-1.668-.003-2.546-.174-.99-.193-2.113-.409-3.544-.164-.225.039-.451.102-.678.176,1.931-3.438,4.226-5.708,6.181-6.044,1.203-.207,2.118-.029,3.088.16.803.156,1.631.316,2.589.23-1.464,3.6-3.133,5.507-5.09,5.816ZM263.031,495.179c-.91.144-1.668-.004-2.545-.174-.991-.193-2.114-.41-3.545-.165-.224.039-.451.103-.679.178,1.931-3.439,4.227-5.709,6.182-6.045,1.204-.208,2.119-.029,3.087.159.803.156,1.632.317,2.59.231-1.464,3.599-3.133,5.506-5.09,5.816ZM268.319,488.063c-.909.143-1.668-.004-2.546-.174-.991-.192-2.112-.411-3.544-.165-.224.039-.452.103-.68.178,1.932-3.439,4.228-5.709,6.183-6.045,1.204-.208,2.118-.03,3.088.159.803.156,1.632.316,2.589.231-1.464,3.599-3.134,5.507-5.09,5.816ZM273.607,480.948c-.909.143-1.667-.005-2.545-.175-.99-.192-2.112-.41-3.545-.164-.224.038-.452.102-.68.178,1.932-3.439,4.228-5.71,6.183-6.046,1.202-.207,2.118-.029,3.088.159.803.157,1.631.317,2.589.231-1.464,3.598-3.133,5.507-5.09,5.817ZM278.895,473.831c-.911.144-1.668-.003-2.546-.174-.99-.193-2.113-.41-3.544-.164-.225.039-.452.102-.68.178,1.931-3.439,4.228-5.709,6.183-6.046,1.202-.207,2.117-.029,3.087.16.804.156,1.632.316,2.59.23-1.464,3.599-3.133,5.507-5.09,5.816ZM284.183,466.716c-.911.143-1.668-.004-2.546-.175-.99-.192-2.113-.41-3.544-.164-.224.039-.452.102-.68.178,1.932-3.439,4.227-5.71,6.183-6.045,1.202-.208,2.118-.029,3.087.159.803.156,1.631.317,2.59.231-1.464,3.599-3.134,5.506-5.09,5.816ZM289.471,459.6c-.91.143-1.668-.003-2.546-.174-.99-.192-2.112-.411-3.544-.165-.224.039-.452.103-.68.179,1.932-3.44,4.228-5.71,6.183-6.046,1.202-.208,2.118-.029,3.086.159.804.157,1.632.317,2.591.23-1.464,3.599-3.134,5.508-5.09,5.817ZM294.759,452.484c-.911.144-1.668-.003-2.547-.174-.989-.192-2.111-.41-3.543-.164-.225.038-.452.102-.68.178,1.932-3.439,4.228-5.71,6.183-6.046,1.202-.207,2.117-.029,3.087.159.804.156,1.632.317,2.59.231-1.464,3.599-3.133,5.507-5.09,5.816ZM300.047,445.369c-.911.144-1.668-.004-2.546-.175-.99-.192-2.113-.41-3.544-.164-.225.039-.452.102-.68.178,1.931-3.439,4.227-5.709,6.183-6.046,1.202-.207,2.117-.028,3.087.16.804.156,1.632.316,2.59.23-1.464,3.599-3.134,5.508-5.09,5.817ZM305.335,438.253c-.911.144-1.668-.003-2.546-.174-.99-.193-2.113-.41-3.544-.165-.225.039-.452.103-.68.178,1.932-3.439,4.228-5.709,6.183-6.045,1.204-.208,2.118-.029,3.087.159.803.156,1.631.317,2.589.231-1.463,3.599-3.133,5.507-5.089,5.816ZM310.623,431.137c-.91.143-1.668-.003-2.546-.174-.991-.192-2.112-.41-3.544-.165-.225.039-.452.103-.68.178,1.932-3.439,4.228-5.709,6.183-6.045,1.203-.207,2.118-.03,3.087.159.804.157,1.632.318,2.59.231-1.464,3.598-3.134,5.506-5.09,5.816ZM315.911,424.021c-.909.144-1.668-.003-2.546-.174-.99-.192-2.112-.41-3.544-.164-.225.039-.452.102-.68.178,1.932-3.439,4.227-5.709,6.183-6.045,1.204-.208,2.119-.03,3.087.159.803.156,1.632.317,2.589.23-1.464,3.599-3.133,5.507-5.089,5.816ZM321.199,416.906c-.911.143-1.668-.004-2.546-.175-.99-.192-2.112-.41-3.544-.164-.225.039-.452.103-.68.178,1.932-3.439,4.227-5.71,6.183-6.046,1.202-.207,2.118-.028,3.087.16.803.156,1.632.317,2.589.23-1.464,3.599-3.133,5.507-5.089,5.817ZM326.487,409.79c-.911.144-1.668-.003-2.546-.174-.99-.193-2.112-.41-3.544-.165-.225.039-.452.103-.68.178,1.932-3.439,4.228-5.709,6.183-6.045,1.203-.207,2.118-.029,3.088.159.803.157,1.632.316,2.589.23-1.464,3.6-3.133,5.508-5.09,5.817ZM331.775,402.675c-.91.143-1.668-.005-2.545-.175-.992-.192-2.114-.409-3.545-.164-.225.038-.452.102-.68.178,1.932-3.439,4.227-5.709,6.183-6.046,1.203-.207,2.118-.029,3.087.16.804.156,1.631.317,2.59.23-1.464,3.599-3.134,5.507-5.09,5.817ZM337.063,395.558c-.909.144-1.668-.003-2.546-.174-.99-.192-2.112-.409-3.544-.164-.225.039-.452.102-.68.178,1.931-3.439,4.227-5.709,6.184-6.046,1.202-.208,2.118-.029,3.086.16.804.155,1.633.316,2.59.23-1.464,3.6-3.133,5.507-5.089,5.817h-.001ZM342.351,388.443c-.911.144-1.669-.004-2.546-.174-.991-.193-2.112-.411-3.544-.165-.225.039-.452.103-.68.178,1.931-3.439,4.227-5.709,6.183-6.046,1.201-.207,2.117-.029,3.087.16.803.156,1.632.316,2.589.23-1.463,3.6-3.133,5.508-5.089,5.817ZM347.639,381.327c-.911.144-1.668-.004-2.546-.174-.99-.193-2.112-.41-3.544-.165-.225.039-.452.103-.68.178,1.932-3.439,4.227-5.709,6.183-6.045,1.202-.207,2.118-.03,3.087.159.803.157,1.631.317,2.59.23-1.464,3.599-3.134,5.507-5.09,5.817ZM352.927,374.211c-.909.144-1.668-.003-2.546-.174-.991-.193-2.114-.41-3.545-.164-.224.038-.451.102-.679.178,1.932-3.439,4.227-5.709,6.183-6.046,1.202-.207,2.117-.029,3.086.159.804.156,1.632.317,2.591.231-1.465,3.599-3.134,5.507-5.09,5.816ZM358.215,367.096c-.91.143-1.668-.004-2.547-.175-.989-.192-2.112-.409-3.543-.164-.225.039-.452.102-.68.178,1.931-3.439,4.227-5.71,6.183-6.046,1.203-.207,2.118-.029,3.087.16.803.156,1.632.317,2.589.23-1.463,3.6-3.133,5.508-5.089,5.817ZM363.502,359.98c-.91.144-1.668-.003-2.545-.174-.991-.193-2.112-.411-3.544-.165-.225.039-.452.103-.68.178,1.931-3.439,4.227-5.709,6.182-6.045,1.202-.208,2.118-.029,3.088.159.803.156,1.632.317,2.589.231-1.464,3.599-3.133,5.507-5.09,5.816ZM368.791,352.864c-.911.144-1.668-.003-2.546-.174-.99-.192-2.112-.41-3.545-.164-.224.038-.451.102-.679.178,1.932-3.439,4.227-5.709,6.183-6.046,1.202-.207,2.118-.029,3.087.159.803.157,1.631.317,2.59.231-1.465,3.598-3.134,5.507-5.09,5.816ZM374.079,345.748c-.909.144-1.669-.003-2.546-.174-.991-.193-2.114-.41-3.545-.164-.224.038-.451.102-.679.178,1.931-3.439,4.227-5.709,6.183-6.046,1.203-.207,2.119-.03,3.088.158.48.092.971.187,1.493.23l.385,1.575c-1.299,2.592-2.732,3.983-4.379,4.243ZM372.597,338.472c1.205-2.151,2.543-3.837,3.891-4.896.41,1.699.863,3.384,1.353,5.054-.337-.044-.672-.106-1.019-.173-.991-.191-2.113-.409-3.546-.163-.224.039-.451.102-.679.178h0ZM376.175,332.233c-1.963,1.36-3.902,3.887-5.5,7.184l.068.032c-1.895,1.372-3.785,3.842-5.355,7.083l.068.033c-1.895,1.372-3.786,3.841-5.356,7.082l.068.033c-1.895,1.372-3.785,3.842-5.356,7.083l.068.033c-1.895,1.372-3.785,3.842-5.356,7.083l.068.033c-1.895,1.371-3.785,3.841-5.355,7.083l.068.033c-1.895,1.371-3.786,3.841-5.356,7.082l.068.033c-1.895,1.372-3.785,3.842-5.356,7.083l.068.033c-1.895,1.372-3.785,3.842-5.356,7.083l.068.033c-1.895,1.372-3.785,3.841-5.356,7.083l.068.033c-1.895,1.371-3.785,3.841-5.356,7.082l.068.033c-1.895,1.372-3.785,3.842-5.356,7.083l.068.033c-1.895,1.372-3.785,3.841-5.355,7.083l.068.033c-1.895,1.372-3.786,3.841-5.356,7.082l.068.033c-1.895,1.372-3.786,3.842-5.356,7.083l.068.033c-1.896,1.372-3.786,3.842-5.356,7.083l.068.033c-1.895,1.372-3.786,3.841-5.356,7.083l.068.033c-1.895,1.372-3.786,3.841-5.356,7.082l.068.033c-1.895,1.372-3.785,3.842-5.356,7.083l.068.033c-1.895,1.372-3.785,3.842-5.356,7.083l.068.033c-1.895,1.372-3.785,3.841-5.356,7.083l.068.033c-1.895,1.372-3.785,3.841-5.356,7.082l.068.033c-1.895,1.372-3.785,3.842-5.355,7.083l.068.033c-1.895,1.372-3.786,3.841-5.356,7.083l.062.03c-1.569,1.131-3.126,3.02-4.523,5.513l-5.901-8.062,135.042-184.499c.413,5.492,1.236,10.895,2.443,16.173h-.003ZM67.889,246.019c-13.474-18.386-31.939-31.934-53.423-39.201V15.266h432.217v189.857c-3.452,1.104-6.922,2.332-10.323,3.652-16.054,6.235-31.989,20.028-43.719,37.841-5.391,8.187-9.728,16.926-12.908,25.885-1.046-1.708-2.206-2.816-3.509-3.348-1.461-3.913-3.199-6.253-5.285-7.11-1.463-3.917-3.201-6.259-5.288-7.116-1.462-3.917-3.201-6.259-5.288-7.116-1.463-3.917-3.201-6.258-5.288-7.115-1.462-3.917-3.201-6.259-5.288-7.116-1.462-3.917-3.201-6.258-5.288-7.116-1.462-3.917-3.201-6.259-5.288-7.116-1.462-3.917-3.2-6.258-5.288-7.116-1.462-3.917-3.2-6.259-5.288-7.116-1.462-3.917-3.201-6.258-5.288-7.116-1.462-3.917-3.2-6.258-5.288-7.116-1.462-3.916-3.2-6.258-5.287-7.115-1.463-3.917-3.201-6.259-5.289-7.116-1.462-3.917-3.2-6.259-5.288-7.116-1.462-3.917-3.2-6.258-5.287-7.116-1.463-3.916-3.201-6.258-5.288-7.115-1.462-3.917-3.201-6.259-5.289-7.116-1.462-3.917-3.2-6.259-5.287-7.116-1.462-3.917-3.201-6.259-5.288-7.116-1.462-3.917-3.201-6.258-5.288-7.115-1.462-3.917-3.201-6.259-5.288-7.116-1.462-3.917-3.201-6.259-5.288-7.116-1.462-3.916-3.2-6.258-5.287-7.116-.994-2.663-2.097-4.574-3.356-5.808l56.138-76.697c.027-.038.049-.077.067-.118h129.78v177.977c0,.35.284.634.633.634s.634-.284.634-.634V22.239c0-.35-.284-.633-.634-.633H22.782c-.35,0-.634.283-.634.633v179.813c0,.35.284.633.634.633s.633-.283.633-.633V22.872h129.87c.018.041.04.081.067.118l56.129,76.684c-.53.938-1.035,2.037-1.502,3.29-2.088.857-3.827,3.199-5.289,7.116-2.087.857-3.826,3.199-5.288,7.115-2.087.858-3.826,3.199-5.287,7.116-2.088.858-3.827,3.199-5.289,7.116-2.087.857-3.826,3.199-5.287,7.116-2.087.857-3.826,3.199-5.288,7.116-2.088.857-3.826,3.198-5.288,7.115-2.087.858-3.827,3.199-5.289,7.116-2.087.857-3.825,3.199-5.287,7.116-2.088.857-3.826,3.199-5.288,7.116-2.088.857-3.827,3.199-5.289,7.115-2.087.858-3.826,3.199-5.288,7.116-2.087.858-3.825,3.199-5.287,7.116-2.087.857-3.826,3.199-5.288,7.116-2.087.857-3.826,3.199-5.289,7.115-2.087.858-3.825,3.199-5.287,7.116-2.087.858-3.826,3.199-5.288,7.116-2.087.857-3.826,3.199-5.288,7.116-2.087.857-3.826,3.199-5.288,7.115-2.087.858-3.826,3.199-5.288,7.116-2.087.857-3.826,3.199-5.287,7.115-2.088.858-3.826,3.199-5.288,7.116-2.088.858-3.826,3.199-5.288,7.116-1.702.699-3.172,2.387-4.45,5.112-3.462-9.08-8.151-17.716-14.016-25.72h0ZM446.683,597.071H14.467v-182.29c21.484-7.267,39.948-20.814,53.423-39.201,6.963-9.501,12.273-19.891,15.834-30.861,1.345,3.108,2.909,5.009,4.743,5.763,1.462,3.916,3.201,6.258,5.288,7.116,1.462,3.917,3.201,6.258,5.288,7.116,1.462,3.916,3.2,6.257,5.287,7.115,1.462,3.917,3.201,6.259,5.288,7.116,1.462,3.916,3.201,6.258,5.288,7.116,1.463,3.917,3.201,6.258,5.289,7.116,1.462,3.916,3.2,6.258,5.287,7.115,1.462,3.917,3.201,6.259,5.288,7.116,1.463,3.917,3.201,6.259,5.289,7.116,1.462,3.917,3.201,6.258,5.288,7.116,1.462,3.916,3.2,6.258,5.287,7.115,1.462,3.917,3.201,6.259,5.288,7.116,1.462,3.917,3.201,6.259,5.289,7.116,1.462,3.917,3.2,6.258,5.288,7.115,1.462,3.917,3.2,6.258,5.287,7.116,1.462,3.917,3.201,6.258,5.288,7.116,1.462,3.916,3.201,6.258,5.289,7.115,1.462,3.917,3.2,6.259,5.287,7.116,1.462,3.916,3.201,6.258,5.288,7.116,1.462,3.917,3.201,6.258,5.289,7.116,1.462,3.917,3.2,6.258,5.287,7.115,1.463,3.917,3.201,6.259,5.288,7.116,1.462,3.916,3.201,6.258,5.288,7.116.343.917.706,1.755,1.082,2.504l-20.735,28.329c-.867-.21-3.036-.708-6.3-1.277l16.077-22.364c.161-.223.159-.525-.005-.746l-116.327-156.918c-.139-.187-.371-.284-.6-.25-.231.034-.424.191-.504.41-.046.126-3.078,8.253-10.381,18.575h0c-1.3,1.838-2.737,3.745-4.314,5.689l-.034.026.006.009c-1.415,1.741-2.942,3.511-4.591,5.287l-.047.035.006.009c-2.237,2.408-4.692,4.826-7.382,7.196-7.787,6.862-14.326,11.129-18.573,13.556l-.022-.03-.24.177c-3.132,1.774-4.95,2.511-4.991,2.527-.241.096-.4.329-.4.589l-.11,159.76c0,.026.005.052.008.078-3.696,1.498-7.089,2.748-8.297,3.187v-162.214c0-.349-.284-.633-.633-.633s-.634.284-.634.633v171.058c0,.349.284.633.634.633h415.087c.349,0,.633-.284.633-.633v-171.9c0-.35-.284-.633-.633-.633s-.634.283-.634.633v163.213c-1.168-.35-4.579-1.387-7.92-2.54.001-.013.004-.025.004-.038l-.11-161.026c0-.259-.159-.493-.4-.588-.098-.04-9.994-4.042-23.825-16.231-19.367-17.066-26.666-36.63-26.738-36.825-.079-.219-.273-.376-.504-.41-.233-.034-.461.062-.599.25l-22.709,30.633-.022.016.005.007-93.601,126.262c-.164.221-.167.523-.006.747l15.893,22.107c-3.088.556-5.174,1.041-6.02,1.249l-20.456-27.948c1.332-1.225,2.493-3.189,3.532-5.977,2.087-.857,3.826-3.199,5.288-7.115,2.087-.858,3.826-3.199,5.288-7.116,2.087-.857,3.826-3.199,5.288-7.116,2.087-.857,3.826-3.199,5.287-7.115,2.088-.857,3.827-3.199,5.289-7.116,2.087-.857,3.825-3.199,5.287-7.115,2.088-.858,3.827-3.199,5.289-7.116,2.087-.858,3.826-3.2,5.288-7.116,2.087-.857,3.826-3.199,5.288-7.116,2.087-.857,3.826-3.198,5.288-7.115,2.087-.857,3.826-3.199,5.288-7.116,2.087-.858,3.826-3.199,5.288-7.116,2.087-.857,3.826-3.199,5.288-7.115,2.087-.857,3.826-3.199,5.288-7.116,2.087-.857,3.826-3.199,5.288-7.115,2.087-.858,3.826-3.2,5.288-7.116,2.087-.858,3.826-3.199,5.288-7.116,2.087-.857,3.826-3.199,5.288-7.116,2.088-.857,3.827-3.199,5.288-7.115,2.087-.858,3.826-3.199,5.288-7.116,2.087-.857,3.825-3.199,5.288-7.115,2.087-.858,3.826-3.199,5.288-7.116,2.087-.857,3.824-3.197,5.286-7.111,1.422-.58,2.674-1.845,3.793-3.83,10.597,31.391,35.117,57.059,67.511,68.484v185.728l-.002-.003Z"/><path class="cls-1" d="M447.541,214.103c.327-.123.492-.489.368-.816s-.489-.492-.817-.368c-18.968,7.188-35.185,19.79-46.898,36.444-11.98,17.034-18.313,37.083-18.313,57.979s6.333,40.945,18.313,57.979c3.374,4.798,7.125,9.257,11.205,13.35l.858.852c1.789,1.752,3.639,3.433,5.548,5.043l.94.78c8.437,6.94,17.98,12.49,28.347,16.418.074.028.15.042.224.042.255,0,.497-.156.592-.409.125-.327-.04-.693-.367-.817-10.203-3.866-19.597-9.322-27.908-16.144,19.588-20.51,30.366-47.358,30.366-75.747,0-29.128-11.294-56.55-31.804-77.239,8.66-7.386,18.55-13.256,29.346-17.348h0ZM401.231,364.593c-11.83-16.82-18.082-36.617-18.082-57.251s6.253-40.431,18.082-57.251c3.202-4.553,6.747-8.797,10.594-12.708,18.535,18.927,28.743,43.921,28.743,70.406,0,26.287-10.048,51.081-28.307,69.952-4.015-4.032-7.707-8.424-11.03-13.148ZM448.733,308.689c0,28.091-10.677,54.656-30.077,74.938-1.891-1.594-3.725-3.259-5.496-4.994,18.496-19.11,28.675-44.22,28.675-70.844,0-26.823-10.34-52.136-29.114-71.302,1.463-1.451,2.967-2.855,4.514-4.209,20.312,20.458,31.498,47.59,31.498,76.411h0Z"/><path class="cls-1" d="M249.47,568.132l.646,2.046c.094.296-.058.588-.363.685l-2.093.661c-.296.093-.598-.056-.692-.352l-.646-2.046-1.241.393,2.048,6.478,1.241-.392-.761-2.406c-.093-.296.068-.591.365-.685l2.092-.661c.306-.097.598.056.692.352l.76,2.406,1.251-.395-2.048-6.479-1.251.395Z"/><path class="cls-1" d="M257.671,565.632c-2.068.574-3.124,2.468-2.599,4.357.524,1.89,2.406,2.968,4.474,2.395,2.077-.576,3.131-2.48,2.609-4.359-.522-1.88-2.406-2.969-4.484-2.393h0ZM259.245,571.299c-1.329.369-2.486-.388-2.845-1.679-.358-1.29.244-2.535,1.573-2.903,1.338-.371,2.495.385,2.853,1.676.359,1.291-.243,2.535-1.581,2.906Z"/><path class="cls-1" d="M270.9,566.63c.037.999-.639,1.857-1.669,2.101-1.305.308-2.499-.476-2.807-1.781-.309-1.304.407-2.541,1.711-2.849,1.05-.248,2.048.215,2.457,1.186l1.399-.331c-.602-1.574-2.262-2.389-4.115-1.95-2.071.489-3.235,2.361-2.786,4.26.45,1.899,2.33,3.051,4.4,2.561,1.834-.433,2.963-1.907,2.808-3.527l-1.398.331h0Z"/><path class="cls-1" d="M283.291,565.88c-1.322.222-2.462-.639-2.685-1.959-.223-1.321.571-2.508,1.892-2.732,1.063-.179,2.028.347,2.374,1.343l1.417-.24c-.499-1.609-2.102-2.529-3.979-2.212-2.097.354-3.38,2.145-3.055,4.069.326,1.924,2.126,3.195,4.223,2.841,1.858-.314,3.079-1.711,3.031-3.337l-1.417.239c-.028.999-.758,1.811-1.801,1.988Z"/><path class="cls-1" d="M291.181,558.898l-1.95,7.064,1.341-.155.474-1.823c.08-.322.267-.48.585-.517l1.476-.17c.309-.036.527.076.678.371l.877,1.667,1.351-.156-3.51-6.433-1.322.152ZM292.751,562.331l-1.003.116c-.202.023-.304-.092-.25-.303l.367-1.391c.058-.261.27-.285.395-.046l.665,1.272c.111.192.029.329-.174.352Z"/><path class="cls-1" d="M302.735,561.423c1.103-.109,1.812-.848,1.76-1.807-.053-.97-.931-1.729-2.124-1.664l-3.782.206.37,6.785,1.299-.071-.149-2.733c-.026-.475.384-.624.695-.281l2.5,2.848,1.542-.084-2.339-2.565c-.269-.296-.178-.593.228-.634ZM300.53,560.57c-.32.018-.515-.156-.531-.457l-.027-.504c-.017-.301.157-.495.478-.512l1.91-.104c.446-.025.803.277.826.694.022.407-.3.755-.746.78l-1.91.103Z"/><path class="cls-1" d="M310.217,557.828l-2.059-.043-.139,6.794,2.078.043c2.467.051,3.633-1.372,3.672-3.323.041-1.95-1.066-3.42-3.552-3.471ZM310.255,563.538l-.185-.004c-.447-.009-.694-.266-.685-.703l.067-3.242c.009-.437.267-.684.713-.675l.175.003c1.194.025,2.083.742,2.05,2.354-.033,1.611-.96,2.291-2.136,2.267h.001Z"/><path class="cls-1" d="M322.025,558.684l-.866,6.74,1.291.166.866-6.74-1.291-.166Z"/><path class="cls-1" d="M330.833,564.263c-.166.996-.836,1.534-1.766,1.38-.93-.154-1.39-.881-1.224-1.876l.684-4.118-1.293-.215-.669,4.022c-.299,1.801.666,2.984,2.324,3.259,1.658.275,2.954-.532,3.253-2.333l.669-4.022-1.294-.215-.684,4.118h0Z"/><path class="cls-1" d="M338.72,561.485l-2.018-.41-1.357,6.658,2.037.414c2.417.493,3.819-.698,4.21-2.61.39-1.911-.435-3.556-2.872-4.053h0ZM340.24,565.263c-.322,1.579-1.356,2.082-2.507,1.847l-.182-.037c-.438-.089-.634-.386-.547-.814l.647-3.177c.088-.429.386-.626.824-.536l.171.034c1.17.238,1.916,1.104,1.594,2.682h0Z"/><path class="cls-1" d="M345.799,563.032l-1.59,6.605,1.265.304,1.59-6.605-1.265-.304Z"/><path class="cls-1" d="M354.169,565.125c-2.046-.587-3.978.475-4.516,2.35-.539,1.876.535,3.8,2.58,4.388,1.812.519,3.518-.213,4.178-1.701l-1.382-.396c-.457.889-1.467,1.306-2.485,1.014-1.288-.37-1.944-1.639-1.574-2.927.37-1.288,1.599-2.016,2.888-1.645,1.037.296,1.68,1.188,1.561,2.235l1.382.397c.246-1.667-.802-3.19-2.632-3.715h0Z"/><path class="cls-1" d="M362.684,567.915l-4.825,5.519,1.276.443,1.219-1.438c.212-.255.448-.316.751-.212l1.404.487c.294.102.442.297.45.629l.066,1.882,1.285.446-.369-7.32-1.257-.436ZM362.607,571.69l-.954-.331c-.193-.067-.234-.214-.094-.382l.935-1.094c.166-.209.367-.139.377.131l.046,1.434c.016.222-.117.309-.31.242Z"/><path class="cls-1" d="M367.819,570.846l1.512.586c.353.137.484.417.347.77l-1.869,4.814,1.223.474,1.868-4.814c.137-.353.423-.471.776-.334l1.503.583.376-.969-5.36-2.078-.376.968Z"/><path class="cls-1" d="M92.711,569.675l.769,2.003c.111.29-.023.59-.322.705l-2.049.786c-.29.112-.6-.019-.712-.309l-.769-2.002-1.215.466,2.436,6.343,1.215-.466-.905-2.356c-.112-.29.032-.595.322-.706l2.049-.786c.299-.114.6.019.712.309l.905,2.356,1.224-.469-2.436-6.343-1.223.469Z"/><path class="cls-1" d="M100.842,566.715c-2.039.667-3.008,2.608-2.397,4.471.61,1.863,2.539,2.855,4.579,2.188,2.049-.671,3.014-2.621,2.406-4.475-.607-1.854-2.54-2.855-4.588-2.184ZM102.673,572.304c-1.31.429-2.501-.274-2.918-1.547-.417-1.273.127-2.544,1.437-2.973,1.32-.431,2.51.271,2.928,1.544.417,1.273-.127,2.543-1.447,2.976Z"/><path class="cls-1" d="M114.16,567.255c.062.998-.593,1.872-1.617,2.141-1.296.341-2.509-.415-2.85-1.711-.341-1.296.344-2.55,1.641-2.89,1.043-.274,2.052.164,2.485,1.124l1.391-.365c-.641-1.558-2.32-2.332-4.162-1.849-2.057.541-3.176,2.44-2.679,4.328.496,1.887,2.403,2.993,4.461,2.452,1.822-.478,2.914-1.979,2.721-3.595l-1.391.365h0Z"/><path class="cls-1" d="M126.538,566.28c-1.317.248-2.473-.591-2.721-1.908-.248-1.316.523-2.518,1.84-2.766,1.059-.2,2.035.308,2.399,1.296l1.413-.266c-.529-1.599-2.15-2.489-4.02-2.136-2.09.393-3.339,2.208-2.978,4.126.361,1.917,2.186,3.154,4.275,2.76,1.852-.349,3.047-1.769,2.968-3.393l-1.413.266c-.009.999-.723,1.825-1.763,2.021h0Z"/><path class="cls-1" d="M134.188,559.102l-1.684,7.135,1.334-.205.405-1.84c.068-.325.25-.49.566-.538l1.47-.226c.307-.047.529.056.692.345l.939,1.634,1.344-.207-3.75-6.3-1.315.203h0ZM135.886,562.476l-.999.153c-.201.031-.307-.08-.261-.294l.315-1.403c.048-.263.259-.296.394-.061l.713,1.246c.117.188.04.328-.162.359h0Z"/><path class="cls-1" d="M145.858,561.208c1.1-.133,1.792-.888,1.718-1.847-.075-.967-.97-1.706-2.161-1.614l-3.777.29.523,6.777,1.298-.1-.211-2.73c-.037-.475.37-.632.688-.296l2.564,2.791,1.54-.119-2.396-2.512c-.276-.29-.192-.589.214-.64h0ZM143.633,560.406c-.32.025-.518-.145-.541-.445l-.039-.503c-.023-.3.147-.499.466-.523l1.909-.148c.445-.034.809.259.841.676.031.406-.282.762-.728.796l-1.908.147Z"/><path class="cls-1" d="M153.307,557.518l-2.059-.019-.063,6.794,2.078.019c2.467.024,3.617-1.412,3.635-3.363.018-1.951-1.105-3.408-3.591-3.431ZM153.409,563.226h-.185c-.446-.006-.696-.26-.693-.697l.03-3.242c.005-.436.259-.686.706-.682l.175.002c1.194.011,2.091.718,2.076,2.329-.015,1.611-.934,2.302-2.109,2.291h0Z"/><path class="cls-1" d="M165.017,558.087l-.632,6.767,1.296.121.632-6.767-1.296-.121Z"/><path class="cls-1" d="M174.027,563.345c-.137,1-.792,1.557-1.726,1.429-.933-.128-1.413-.841-1.276-1.841l.569-4.134-1.299-.178-.555,4.038c-.248,1.807.75,2.963,2.414,3.191,1.664.229,2.937-.615,3.186-2.423l.554-4.038-1.298-.179-.569,4.135h0Z"/><path class="cls-1" d="M181.878,560.416l-2.025-.377-1.245,6.681,2.044.38c2.426.451,3.808-.763,4.166-2.681.357-1.919-.495-3.548-2.94-4.003ZM183.462,564.167c-.296,1.585-1.321,2.104-2.477,1.89l-.181-.034c-.44-.082-.642-.376-.562-.806l.594-3.188c.08-.429.375-.631.814-.55l.172.032c1.175.219,1.935,1.072,1.64,2.656Z"/><path class="cls-1" d="M188.969,561.833l-1.463,6.636,1.271.28,1.463-6.636-1.271-.28Z"/><path class="cls-1" d="M197.333,563.708c-2.062-.521-3.958.602-4.436,2.493s.657,3.78,2.719,4.3c1.826.461,3.508-.325,4.119-1.833l-1.394-.352c-.428.903-1.423,1.353-2.45,1.094-1.299-.328-1.996-1.575-1.667-2.874.328-1.298,1.533-2.065,2.833-1.737,1.045.264,1.716,1.134,1.631,2.184l1.394.351c.192-1.673-.904-3.16-2.749-3.626Z"/><path class="cls-1" d="M205.869,566.111l-4.535,5.762,1.297.376,1.143-1.499c.199-.266.432-.339.74-.25l1.428.414c.299.086.457.273.482.605l.164,1.877,1.306.378-.746-7.293-1.278-.371h0ZM205.988,569.886l-.971-.281c-.196-.057-.245-.202-.114-.377l.878-1.141c.154-.218.36-.158.382.111l.121,1.431c.027.22-.101.314-.297.257h.001Z"/><path class="cls-1" d="M211.092,568.737l1.545.493c.361.115.509.386.394.747l-1.571,4.92,1.25.398,1.57-4.92c.115-.36.393-.496.754-.381l1.536.49.316-.99-5.478-1.746-.316.989Z"/><path class="cls-1" d="M222.469,49.299c0-.97-.633-1.751-1.889-2.131l-1.003-.306c-.644-.201-.929-.496-.929-.939,0-.538.433-.95,1.182-.95.697,0,1.161.359,1.246,1.034h1.446c-.095-1.34-1.214-2.163-2.681-2.163-1.562,0-2.597.96-2.597,2.142,0,.992.729,1.698,1.826,2.036l.971.295c.76.232,1.003.612,1.003,1.055,0,.57-.422.96-1.193.96s-1.213-.38-1.277-1.044h-1.456c.095,1.35,1.192,2.173,2.733,2.173,1.584,0,2.618-.918,2.618-2.163h0Z"/><path class="cls-1" d="M227.591,48.592c0-.338.264-.59.601-.59h2.386c.348,0,.601.253.601.59v2.743h1.425v-7.385h-1.425v2.331c0,.338-.253.591-.601.591h-2.386c-.337,0-.601-.253-.601-.591v-2.331h-1.415v7.385h1.415v-2.743Z"/><path class="cls-1" d="M239.668,51.462c1.826,0,3.072-1.097,3.072-3.08v-4.431h-1.425v4.536c0,1.097-.623,1.793-1.647,1.793s-1.646-.696-1.646-1.793v-4.536h-1.425v4.431c0,1.983,1.246,3.08,3.071,3.08Z"/><path class="cls-1" d="M220.158,60.495h3.072v-1.129h-3.072c-.327,0-.581-.243-.581-.57v-.485c0-.327.254-.57.581-.57h3.282v-1.129h-5.277v7.385h1.414v-2.922c0-.338.254-.58.581-.58Z"/><path class="cls-1" d="M227.591,63.998h1.415v-2.922c0-.338.253-.58.58-.58h3.072v-1.129h-3.072c-.327,0-.58-.243-.58-.57v-.485c0-.327.253-.57.58-.57h3.283v-1.129h-5.278v7.385Z"/><path class="cls-1" d="M239.015,60.601v3.397h1.414v-3.439c0-.264.063-.443.232-.654l2.586-3.291h-1.53l-1.573,2.036c-.221.296-.528.296-.749,0l-1.584-2.036h-1.636l2.618,3.323c.158.211.222.39.222.665Z"/><path class="cls-1" d="M274.401,318.292c-.037-.079-2.977-6.035-8.929-7.473,4.28-4.266,6.715-10.089,6.715-16.154,0-12.575-10.236-22.805-22.817-22.805-7.074,0-13.762,3.315-18.071,8.896-4.176-5.405-10.718-8.896-18.063-8.896-12.582,0-22.818,10.23-22.818,22.805,0,7,3.218,13.577,8.673,17.89-5.417,1.03-8.51,5.186-8.552,5.244-.205.283-.142.678.141.884.282.205.679.143.885-.14.212-.291,5.306-7.104,14.054-4.282,8.376,2.703,6.72,10.156,6.645,10.47-.081.34.129.682.468.764.05.011.1.017.149.017.286,0,.545-.195.616-.485.013-.06.913-4.045-1.365-7.589.368.017.737.031,1.104.031,6.595,0,12.543-2.814,16.712-7.301.007-.005.014-.008.021-.013.077-.062,7.75-6.122,13.296-5.158,1.688.294,2.972,1.192,3.927,2.744,1.017,1.652,1.202,3.159.566,4.607-2.354,5.355-14.898,7.841-15.025,7.865-.343.066-.568.399-.502.742.059.303.324.513.622.513.04,0,.08-.004.121-.011.393-.076,7.203-1.428,11.926-4.431,1.462.291,2.964.444,4.47.444.741,0,1.483-.039,2.218-.11-1.347,2.684-1.463,5.129-1.465,5.175-.012.349.261.642.61.655h.024c.339,0,.62-.268.633-.609.012-.326.396-8.009,8.121-10.299,3.831-1.136,7.295-.396,10.299,2.199,2.285,1.974,3.439,4.335,3.45,4.359.151.315.529.448.845.296.315-.151.448-.528.297-.844h-.001ZM213.235,316.202c-.722,0-1.445-.043-2.16-.114-1.145-1.21-2.767-2.29-5.067-3.032-1.841-.594-3.54-.789-5.086-.718-5.503-3.836-8.888-9.99-9.206-16.647,1.419,3.643,4.959,6.225,9.105,6.225,5.396,0,9.77-4.372,9.77-9.765s-4.374-9.764-9.77-9.764c-2.757,0-5.245,1.143-7.021,2.979,3.478-7.234,10.883-12.239,19.436-12.239,11.882,0,21.55,9.661,21.55,21.538s-9.668,21.537-21.55,21.537h0ZM263.906,310.56c-1.436-.134-3.019-.007-4.756.507-3.34.99-5.443,2.924-6.771,4.926-1.981.277-4.034.272-6.028-.005,1.134-.916,2.049-1.955,2.565-3.13.805-1.831.588-3.776-.646-5.781-1.14-1.853-2.752-2.973-4.79-3.328-3.726-.647-8.094,1.405-11.017,3.168,1.579-2.466,2.697-5.253,3.232-8.239,1.788,1.988,4.381,3.238,7.267,3.238,5.396,0,9.77-4.372,9.77-9.765s-4.374-9.764-9.77-9.764c-3.478,0-6.529,1.819-8.26,4.556-.66-1.826-1.545-3.544-2.624-5.121,4.06-5.449,10.487-8.695,17.291-8.695,11.883,0,21.55,9.661,21.55,21.538,0,6.037-2.556,11.82-7.014,15.895h.001Z"/><path class="cls-1" d="M231.2,339.632c-1.838,0-3.179-1.699-3.985-5.05-.558-2.316-.658-4.592-.662-4.687-.015-.349.257-.644.607-.659.345-.017.644.256.659.606.094,2.211.915,8.524,3.381,8.524,2.48,0,3.445-6.323,3.587-8.538.023-.349.316-.611.673-.591.349.023.614.324.592.673-.064.994-.745,9.723-4.852,9.723h0Z"/><path class="cls-2" d="M449,1.3H13C6.538,1.3,1.3,6.538,1.3,13v589c0,6.462,5.238,11.7,11.7,11.7h436c6.462,0,11.7-5.238,11.7-11.7V13c0-6.462-5.238-11.7-11.7-11.7ZM13,0C5.82,0,0,5.82,0,13v589c0,7.18,5.82,13,13,13h436c7.18,0,13-5.82,13-13V13c0-7.18-5.82-13-13-13H13Z"/></g></svg>