<svg xmlns="http://www.w3.org/2000/svg" id="Layer_2" viewBox="0 0 345.572 505.605">
  <g id="CardBack">
    <rect
      width="341.572"
      height="501.605"
      x="2"
      y="2"
      fill="#c070ff"
      stroke="#231f20"
      stroke-linecap="round"
      stroke-linejoin="round"
      stroke-width="4"
      rx="15.861"
      ry="15.861"
    />
    <path
      fill="#ca7af4"
      stroke="#231f20"
      stroke-linecap="round"
      stroke-linejoin="round"
      stroke-width="4"
      d="M112.704 24.853H27.546a3.525 3.525 0 0 0-3.525 3.525v450.965a3.525 3.525 0 0 0 3.525 3.525h290.481a3.525 3.525 0 0 0 3.525-3.525V28.378a3.525 3.525 0 0 0-3.525-3.525h-93.186"
    />
    <path
      d="m24.021 443.228 18.601 39.639M24.021 403.904l36.973 78.791M24.021 364.581l55.506 118.286M24.021 325.257l73.945 157.582M24.021 285.934l92.398 196.905M24.021 246.61l110.864 236.257M24.071 207.392l129.266 275.475M307.835 25.64l13.718 29.233M289.16 25.165l32.593 69.459M24.021 167.963 171.79 482.867M270.813 25.391l50.521 107.663M252.139 24.918l69.163 147.391M233.747 25.048l87.552 186.578M24.021 128.639l166.222 354.228M215.122 24.679 321.299 250.95M196.669 24.679l124.63 265.594M178.298 24.853l143.254 305.282M159.764 24.679l161.788 344.78M24.021 89.316l184.674 393.551M141.311 24.679l180.241 384.104M122.859 24.679l198.693 423.427M104.488 24.854l214.593 457.31M86.035 24.854l214.923 458.013M24.364 50.722l202.784 432.145M67.583 24.854l214.922 458.013M49.13 24.854l214.923 458.013M30.678 24.854 245.6 482.867"
      stroke="#231f20"
      stroke-linecap="round"
      stroke-width="4px"
      fill="none"
      stroke-miterlimit="10"
    />
  </g>
</svg>
