<svg xmlns="http://www.w3.org/2000/svg" fill="none" viewBox="0 0 56 35">
  <path
    fill="#FAFAFA"
    stroke="#231F20"
    stroke-miterlimit="10"
    d="M40.12 31.027c8.218 0 14.88-6.663 14.88-14.88 0-8.22-6.662-14.881-14.88-14.881-8.219 0-14.881 6.662-14.881 14.88s6.662 14.88 14.88 14.88Z"
  />
  <path fill="#231F20" d="M35.822 21.013a6.554 6.554 0 1 0 0-13.107 6.554 6.554 0 0 0 0 13.107Z" />
  <path
    fill="#FAFAFA"
    stroke="#231F20"
    stroke-miterlimit="10"
    d="M15.88 31.027c8.219 0 14.881-6.663 14.881-14.881S24.1 1.266 15.881 1.266C7.662 1.265 1 7.927 1 16.145s6.661 14.88 14.88 14.88Z"
  />
  <path
    fill="currentcolor"
    d="M26.84 26.21s8.788-7.027 12.18-1.51c3.891 6.327-9.98 9.01-9.98 9.01"
  />
  <path
    stroke="#231F20"
    stroke-linecap="round"
    stroke-miterlimit="10"
    d="M26.84 26.21s8.788-7.027 12.18-1.51c3.891 6.327-9.98 9.01-9.98 9.01"
  />
  <path fill="#231F20" d="M7.554 21.013a6.554 6.554 0 1 0 0-13.107 6.554 6.554 0 0 0 0 13.107Z" />
</svg>
