<svg
  xmlns="http://www.w3.org/2000/svg"
  width="19"
  height="18"
  viewBox="0 0 19 18"
  fill="currentColor"
>
  <path
    d="M11.476 2.946V14.994C11.476 15.3934 11.3173 15.7765 11.0349 16.0589C10.7525 16.3413 10.3694 16.5 9.97 16.5H3.6448C3.24538 16.5 2.86233 16.3413 2.5799 16.0589C2.29747 15.7765 2.1388 15.3934 2.1388 14.994V2.946C2.1388 2.54658 2.29747 2.16353 2.5799 1.8811C2.86233 1.59867 3.24538 1.44 3.6448 1.44H9.97C10.3694 1.44 10.7525 1.59867 11.0349 1.8811C11.3173 2.16353 11.476 2.54658 11.476 2.946ZM3.946 3.2472V14.6928H9.6688V3.2472H3.946ZM13.5844 15.2952C13.824 15.2952 14.0539 15.2 14.2233 15.0305C14.3928 14.8611 14.488 14.6312 14.488 14.3916V3.5484C14.488 3.30875 14.3928 3.07892 14.2233 2.90946C14.0539 2.74 13.824 2.6448 13.5844 2.6448C13.3448 2.6448 13.1149 2.74 12.9455 2.90946C12.776 3.07892 12.6808 3.30875 12.6808 3.5484V14.3916C12.6808 14.6312 12.776 14.8611 12.9455 15.0305C13.1149 15.2 13.3448 15.2952 13.5844 15.2952ZM16.5964 14.0904C16.836 14.0904 17.0659 13.9952 17.2353 13.8257C17.4048 13.6563 17.5 13.4264 17.5 13.1868V4.7532C17.5 4.51355 17.4048 4.28372 17.2353 4.11426C17.0659 3.9448 16.836 3.8496 16.5964 3.8496C16.3568 3.8496 16.1269 3.9448 15.9575 4.11426C15.788 4.28372 15.6928 4.51355 15.6928 4.7532V13.1868C15.6928 13.4264 15.788 13.6563 15.9575 13.8257C16.1269 13.9952 16.3568 14.0904 16.5964 14.0904Z"
  />
</svg>
