<svg xmlns="http://www.w3.org/2000/svg" fill="none" viewBox="0 0 32 32">
  <path
    fill="#E5A9FF"
    d="M14 7v6a1 1 0 0 1-1 1H7a1 1 0 0 1-1-1V7a1 1 0 0 1 1-1h6a1 1 0 0 1 1 1Zm10.222 6.326a4 4 0 1 1-4.444-6.653 4 4 0 0 1 4.444 6.653ZM7.778 18.674a4 4 0 1 1 4.444 6.652 4 4 0 0 1-4.444-6.652Z"
  />
  <path
    fill="#231F20"
    d="M13 5H7a2 2 0 0 0-2 2v6a2 2 0 0 0 2 2h6a2 2 0 0 0 2-2V7a2 2 0 0 0-2-2Zm0 8H7V7h6v6Zm9 2a5 5 0 1 0 0-10 5 5 0 0 0 0 10Zm0-8a3 3 0 1 1 0 6 3 3 0 0 1 0-6ZM10 27a5 5 0 1 0 0-10 5 5 0 0 0 0 10Zm0-8a3 3 0 1 1 0 5.999A3 3 0 0 1 10 19Z"
  />
  <path
    fill="#231F20"
    stroke="#231F20"
    stroke-width="1.25"
    d="M26.133 22.133a.48.48 0 0 1-.48.48h-3.04v3.04a.48.48 0 1 1-.96 0v-3.04h-3.04a.48.48 0 0 1 0-.96h3.04v-3.04a.48.48 0 0 1 .96 0v3.04h3.04a.48.48 0 0 1 .48.48Z"
  />
</svg>
