<svg xmlns="http://www.w3.org/2000/svg" fill="none" viewBox="0 0 43 35">
  <g clip-path="url(#a)">
    <path
      fill="#fff"
      stroke="#231F20"
      stroke-miterlimit="10"
      d="M30.376 23.424c6.105 0 11.054-4.95 11.054-11.054 0-6.105-4.95-11.054-11.054-11.054-6.105 0-11.055 4.949-11.055 11.054s4.95 11.054 11.055 11.054Z"
    />
    <path fill="#231F20" d="M34.868 12.737a4.868 4.868 0 1 0 0-9.737 4.868 4.868 0 0 0 0 9.737Z" />
    <path
      fill="#fff"
      stroke="#231F20"
      stroke-miterlimit="10"
      d="M12.37 23.424c6.105 0 11.054-4.95 11.054-11.054 0-6.105-4.95-11.054-11.054-11.054-6.105 0-11.054 4.949-11.054 11.054S6.265 23.424 12.37 23.424Z"
    />
    <path
      fill="currentColor"
      d="M20.511 19.846s6.528-5.22 9.048-1.122c2.89 4.7-7.414 6.694-7.414 6.694"
    />
    <path
      stroke="#231F20"
      stroke-linecap="round"
      stroke-miterlimit="10"
      d="M20.511 19.846s6.528-5.22 9.048-1.122c2.89 4.7-7.414 6.694-7.414 6.694"
    />
    <path fill="#231F20" d="M16.868 12.737a4.868 4.868 0 1 0 0-9.737 4.868 4.868 0 0 0 0 9.737Z" />
    <path
      fill="currentColor"
      d="M31.066 26.276s.15-4.202 4.273-5.426c4.885-1.449 7.225 3.436 7.225 3.436"
    />
    <path
      stroke="#231F20"
      stroke-linecap="round"
      stroke-miterlimit="10"
      d="M31.066 26.276s.15-4.202 4.273-5.426c4.885-1.449 7.225 3.436 7.225 3.436"
    />
    <path
      fill="currentColor"
      d="M1.316 24.09s2.715-3.748 7.355-2.25c4.515 1.457 3.522 5.594 3.522 5.594"
    />
    <path
      stroke="#231F20"
      stroke-linecap="round"
      stroke-miterlimit="10"
      d="M1.316 24.09s2.715-3.748 7.355-2.25c4.515 1.457 3.522 5.594 3.522 5.594"
    />
    <path fill="currentColor" d="M19.322 29.922s.19 4.552 2 4.552 2.102-4.552 2.102-4.552" />
    <path
      stroke="#231F20"
      stroke-linecap="round"
      stroke-miterlimit="10"
      d="M19.322 29.922s.19 4.552 2 4.552 2.102-4.552 2.102-4.552"
    />
  </g>
  <defs>
    <clipPath id="a"><path fill="#fff" d="M0 0h43v35H0z" /></clipPath>
  </defs>
</svg>
