<svg xmlns="http://www.w3.org/2000/svg" class="shuffy-logo" viewBox="0 0 1072.906 279.639">
  <defs>
    <style>
      .cls-1 {
        fill: #ffd506;
        stroke: #231f20;
        stroke-linecap: round;
        stroke-linejoin: round;
        stroke-width: 4px;
      }
      .cls-2 {
        fill: #231f20;
        stroke-width: 0;
      }
    </style>
  </defs>

  <g data-animate="letter">
    <path
      data-letter="S-shadow"
      d="M196.087 235.199c0 29.33-18.116 44.439-31.884 44.439H51.643C37.875 279.638 20 264.529 20 235.199v-33.33c0-8.888 3.865-16.442 8.696-16.442h56.039c7.729 0 8.696 12.442 8.696 23.997 0 15.998 5.797 31.107 14.493 31.107 8.937 0 14.734-15.109 14.734-31.107 0-11.109-.966-19.998-5.073-28.886-3.14-6.666-7.729-14.221-12.56-15.554l-45.652-11.999c-20.29-5.333-39.372-21.775-39.372-65.771V57.44C20.001 28.11 37.876 13 51.644 13h112.561c13.768 0 31.884 15.11 31.884 44.44v33.329c0 8.889-3.865 16.443-8.938 16.443h-55.797c-7.729 0-8.696-12.443-8.696-23.998 0-15.998-5.797-31.552-14.734-31.552-8.696 0-14.493 15.554-14.493 31.552 0 23.554 4.348 40.885 17.391 44.44l45.894 11.998c21.98 5.777 39.372 17.332 39.372 65.771v29.774Z"
      class="cls-2"
    />
    <path
      data-letter="S"
      d="M178.087 224.199c0 29.33-18.116 44.439-31.884 44.439H33.643C19.875 268.638 2 253.529 2 224.199v-33.33c0-8.888 3.865-16.442 8.696-16.442h56.039c7.729 0 8.696 12.442 8.696 23.997 0 15.998 5.797 31.107 14.493 31.107 8.937 0 14.734-15.109 14.734-31.107 0-11.109-.966-19.998-5.073-28.886-3.14-6.666-7.729-14.221-12.56-15.554l-45.652-11.999C21.082 136.652 2 120.21 2 76.215V46.441C2 17.11 19.875 2 33.643 2h112.561c13.768 0 31.884 15.11 31.884 44.44v33.329c0 8.889-3.865 16.443-8.938 16.443h-55.797c-7.729 0-8.696-12.443-8.696-23.998 0-15.998-5.797-31.552-14.734-31.552-8.696 0-14.493 15.554-14.493 31.552 0 23.554 4.348 40.885 17.391 44.44l45.894 11.998c21.98 5.777 39.372 17.332 39.372 65.771v29.774Z"
      class="cls-1"
    />
  </g>

  <g data-animate="letter">
    <path
      data-letter="H-shadow"
      d="M386.911 262.752c0 9.332-4.106 16.887-9.179 16.887h-51.933c-5.072 0-8.937-7.555-8.937-16.887v-99.989h-33.333v99.989c0 9.332-4.106 16.887-8.937 16.887h-51.933c-5.073 0-9.179-7.555-9.179-16.887V29.443c0-8.888 4.106-16.443 9.179-16.443h51.933c4.831 0 8.937 7.556 8.937 16.443v99.989h33.333V29.443c0-8.888 3.865-16.443 8.937-16.443h51.933c5.073 0 9.179 7.556 9.179 16.443v233.309Z"
      class="cls-2"
    />
    <path
      data-letter="H"
      d="M368.911 251.752c0 9.332-4.106 16.887-9.179 16.887h-51.933c-5.072 0-8.937-7.555-8.937-16.887v-99.989h-33.333v99.989c0 9.332-4.106 16.887-8.937 16.887h-51.933c-5.073 0-9.179-7.555-9.179-16.887V18.443C195.48 9.555 199.586 2 204.659 2h51.933c4.831 0 8.937 7.556 8.937 16.443v99.989h33.333V18.443c0-8.888 3.865-16.443 8.937-16.443h51.933c5.073 0 9.179 7.556 9.179 16.443v233.309Z"
      class="cls-1"
    />
  </g>

  <g data-animate="letter">
    <path
      data-letter="U-shadow"
      d="M574.594 235.199c0 24.441-14.734 44.439-32.851 44.439h-104.59c-18.116 0-32.85-19.998-32.85-44.439V29.443c0-8.888 4.106-16.443 9.179-16.443h51.933c4.831 0 8.937 7.556 8.937 16.443v179.98c0 17.332 6.763 31.107 15.217 31.107 8.213 0 14.976-13.775 14.976-31.107V29.443c0-8.888 4.106-16.443 9.179-16.443h51.933c4.831 0 8.938 7.556 8.938 16.443v205.756Z"
      class="cls-2"
    />
    <path
      data-letter="U"
      d="M556.594 224.199c0 24.441-14.734 44.439-32.851 44.439h-104.59c-18.116 0-32.85-19.998-32.85-44.439V18.443c0-8.888 4.106-16.443 9.179-16.443h51.933c4.831 0 8.937 7.556 8.937 16.443v179.98c0 17.332 6.763 31.107 15.217 31.107 8.213 0 14.976-13.775 14.976-31.107V18.443c0-8.888 4.106-16.443 9.179-16.443h51.933c4.831 0 8.938 7.556 8.938 16.443v205.756Z"
      class="cls-1"
    />
  </g>

  <g data-animate="letter">
    <path
      data-letter="F-shadow"
      d="M737.397 51.663c0 9.332-4.106 16.887-9.179 16.887h-66.425v54.217h36.956c4.831 0 8.696 7.555 8.696 16.887v14.221c0 8.889-3.865 16.443-8.696 16.443h-36.956v92.435c0 9.332-4.106 16.887-8.938 16.887h-51.691c-5.072 0-9.179-7.555-9.179-16.887V29.443c0-8.888 4.106-16.443 9.179-16.443h127.054c5.072 0 9.179 7.556 9.179 16.443v22.22Z"
      class="cls-2"
    />
    <path
      data-letter="F"
      d="M719.397 40.663c0 9.332-4.106 16.887-9.179 16.887h-66.425v54.217h36.956c4.831 0 8.696 7.555 8.696 16.887v14.221c0 8.889-3.865 16.443-8.696 16.443h-36.956v92.435c0 9.332-4.106 16.887-8.938 16.887h-51.691c-5.072 0-9.179-7.555-9.179-16.887V18.443c0-8.888 4.106-16.443 9.179-16.443h127.054c5.072 0 9.179 7.556 9.179 16.443v22.22Z"
      class="cls-1"
    />
  </g>

  <g data-animate="letter">
    <path
      data-letter="F2-shadow"
      d="M892.711 51.663c0 9.332-4.106 16.887-9.179 16.887h-66.425v54.217h36.956c4.831 0 8.696 7.555 8.696 16.887v14.221c0 8.889-3.865 16.443-8.696 16.443h-36.956v92.435c0 9.332-4.106 16.887-8.938 16.887h-51.691c-5.072 0-9.179-7.555-9.179-16.887V29.443c0-8.888 4.106-16.443 9.179-16.443h127.054c5.072 0 9.179 7.556 9.179 16.443v22.22Z"
      class="cls-2"
    />
    <path
      data-letter="F2"
      d="M874.711 40.663c0 9.332-4.106 16.887-9.179 16.887h-66.425v54.217h36.956c4.831 0 8.696 7.555 8.696 16.887v14.221c0 8.889-3.865 16.443-8.696 16.443h-36.956v92.435c0 9.332-4.106 16.887-8.938 16.887h-51.691c-5.072 0-9.179-7.555-9.179-16.887V18.443c0-8.888 4.106-16.443 9.179-16.443h127.054c5.072 0 9.179 7.556 9.179 16.443v22.22Z"
      class="cls-1"
    />
  </g>

  <g data-animate="letter">
    <path
      data-letter="Y-shadow"
      d="M1072.906 235.199c0 24.441-14.734 44.439-32.851 44.439h-104.59c-18.116 0-32.851-19.998-32.851-44.439v-16.443c0-9.332 4.106-16.887 9.179-16.887h51.933c4.831 0 8.938 7.555 8.938 16.887v7.11c0 17.332 6.764 31.553 15.218 31.553 8.212 0 14.976-14.221 14.976-31.553v-47.994h-67.392c-18.116 0-32.851-19.998-32.851-44.44V29.888c0-9.332 4.106-16.888 9.179-16.888h51.933c4.831 0 8.938 7.556 8.938 16.888v88.879c0 17.332 6.764 31.108 15.218 31.108 8.212 0 14.976-13.776 14.976-31.108V29.888c0-9.332 4.106-16.888 9.179-16.888h51.933c4.831 0 8.938 7.556 8.938 16.888V235.2Z"
      class="cls-2"
    />
    <path
      data-letter="Y"
      d="M1054.906 224.199c0 24.441-14.734 44.439-32.851 44.439h-104.59c-18.116 0-32.851-19.998-32.851-44.439v-16.443c0-9.332 4.106-16.887 9.179-16.887h51.933c4.831 0 8.938 7.555 8.938 16.887v7.11c0 17.332 6.764 31.553 15.218 31.553 8.212 0 14.976-14.221 14.976-31.553v-47.994h-67.392c-18.116 0-32.851-19.998-32.851-44.44V18.888c0-9.332 4.106-16.888 9.179-16.888h51.933c4.831 0 8.938 7.556 8.938 16.888v88.879c0 17.332 6.764 31.108 15.218 31.108 8.212 0 14.976-13.776 14.976-31.108V18.888c0-9.332 4.106-16.888 9.179-16.888h51.933c4.831 0 8.938 7.556 8.938 16.888V224.2Z"
      class="cls-1"
    />
  </g>
</svg>
