<svg xmlns="http://www.w3.org/2000/svg" fill="none" viewBox="0 0 30 30">
  <path
    fill="#C070FF"
    d="m26.965 12.745-3.733-2.125a9.648 9.648 0 0 0-.234-.4L22.984 6a12.26 12.26 0 0 0-4-2.251l-3.75 2.096h-.468l-3.75-2.096a12.255 12.255 0 0 0-3.998 2.256L7 10.225c-.082.13-.16.264-.235.4l-3.731 2.12a11.619 11.619 0 0 0 0 4.507l3.732 2.126c.075.136.154.268.235.4l.014 4.219a12.26 12.26 0 0 0 4 2.253l3.75-2.094h.47l3.75 2.094a12.255 12.255 0 0 0 3.993-2.256l.019-4.219c.082-.13.16-.264.234-.4l3.731-2.12c.296-1.489.297-3.02.003-4.51ZM15 19.688a4.687 4.687 0 1 1 0-9.375 4.687 4.687 0 0 1 0 9.374Z"
  />
  <path
    fill="#231F20"
    d="M15 9.375a5.625 5.625 0 1 0 0 11.25 5.625 5.625 0 0 0 0-11.25Zm0 9.375a3.75 3.75 0 1 1 0-7.501 3.75 3.75 0 0 1 0 7.501Zm12.884-6.186a.936.936 0 0 0-.456-.633l-3.496-1.992-.014-3.94a.937.937 0 0 0-.332-.713 13.114 13.114 0 0 0-4.303-2.422.937.937 0 0 0-.757.07L15 4.903 11.47 2.93a.937.937 0 0 0-.758-.07 13.116 13.116 0 0 0-4.298 2.43.937.937 0 0 0-.332.711l-.018 3.944-3.495 1.992a.936.936 0 0 0-.456.633 12.477 12.477 0 0 0 0 4.87.938.938 0 0 0 .456.633l3.495 1.992.015 3.941a.938.938 0 0 0 .331.712 13.116 13.116 0 0 0 4.303 2.423.937.937 0 0 0 .757-.07L15 25.097l3.53 1.974a.952.952 0 0 0 .758.068 13.137 13.137 0 0 0 4.298-2.429.939.939 0 0 0 .332-.711l.018-3.944 3.495-1.992a.938.938 0 0 0 .456-.633c.318-1.606.317-3.26-.003-4.865Zm-1.758 4.09-3.348 1.905a.938.938 0 0 0-.352.351c-.068.118-.14.242-.212.36a.93.93 0 0 0-.143.492l-.018 3.78c-.9.706-1.902 1.272-2.973 1.676l-3.377-1.883a.938.938 0 0 0-.458-.117h-.449a.95.95 0 0 0-.48.117l-3.38 1.887a11.25 11.25 0 0 1-2.981-1.667l-.013-3.774a.938.938 0 0 0-.143-.494 6.71 6.71 0 0 1-.211-.359.948.948 0 0 0-.352-.358l-3.351-1.91a10.604 10.604 0 0 1 0-3.311l3.342-1.908a.937.937 0 0 0 .352-.352c.067-.117.139-.241.212-.358a.93.93 0 0 0 .143-.493l.017-3.78a11.24 11.24 0 0 1 2.973-1.676l3.373 1.882a.938.938 0 0 0 .48.118h.427a.938.938 0 0 0 .48-.118l3.38-1.886c1.073.4 2.078.963 2.981 1.667l.013 3.774c0 .175.05.346.143.494.073.117.144.235.211.359a.948.948 0 0 0 .352.358l3.351 1.91c.176 1.097.178 2.216.006 3.315h.005Z"
  />
</svg>
