<svg xmlns="http://www.w3.org/2000/svg" fill="none" viewBox="0 0 69 56">
  <path
    fill="#fff"
    stroke="#231F20"
    stroke-miterlimit="10"
    stroke-width="1.021"
    d="M47.9 37.108c9.873 0 17.877-8.003 17.877-17.875 0-9.873-8.004-17.876-17.876-17.876-9.873 0-17.876 8.003-17.876 17.876 0 9.872 8.003 17.875 17.876 17.875Z"
  />
  <path fill="#231F20" d="M42.738 25.079a7.873 7.873 0 1 0 0-15.746 7.873 7.873 0 0 0 0 15.746Z" />
  <path
    fill="#fff"
    stroke="#231F20"
    stroke-miterlimit="10"
    stroke-width="1.021"
    d="M18.783 37.108c9.872 0 17.876-8.003 17.876-17.876 0-9.872-8.004-17.876-17.876-17.876C8.91 1.356.907 9.36.907 19.232c0 9.873 8.003 17.876 17.876 17.876Z"
  />
  <path
    fill="currentColor"
    d="M31.948 31.323s10.557-8.442 14.632-1.816c4.675 7.602-11.989 10.826-11.989 10.826"
  />
  <path
    stroke="#231F20"
    stroke-linecap="round"
    stroke-miterlimit="10"
    stroke-width="1.021"
    d="M31.948 31.323s10.557-8.442 14.632-1.816c4.675 7.602-11.989 10.826-11.989 10.826"
  />
  <path fill="#231F20" d="M8.78 25.079a7.873 7.873 0 1 0 0-15.746 7.873 7.873 0 0 0 0 15.746Z" />
  <path
    fill="currentColor"
    d="M49.018 41.721s.241-6.796 6.91-8.774c7.899-2.344 11.683 5.556 11.683 5.556"
  />
  <path
    stroke="#231F20"
    stroke-linecap="round"
    stroke-miterlimit="10"
    stroke-width="1.021"
    d="M49.018 41.721s.241-6.796 6.91-8.774c7.899-2.344 11.683 5.556 11.683 5.556"
  />
  <path
    fill="currentColor"
    d="M.907 38.184s4.39-6.06 11.895-3.637c7.3 2.357 5.695 9.047 5.695 9.047"
  />
  <path
    stroke="#231F20"
    stroke-linecap="round"
    stroke-miterlimit="10"
    stroke-width="1.021"
    d="M.907 38.184s4.39-6.06 11.895-3.637c7.3 2.357 5.695 9.047 5.695 9.047"
  />
  <path fill="currentColor" d="M30.025 47.616s.307 7.362 3.234 7.362c2.928 0 3.4-7.362 3.4-7.362" />
  <path
    stroke="#231F20"
    stroke-linecap="round"
    stroke-miterlimit="10"
    stroke-width="1.021"
    d="M30.025 47.616s.307 7.362 3.234 7.362c2.928 0 3.4-7.362 3.4-7.362"
  />
</svg>
